<svg width="26" height="24" viewBox="0 0 26 24" fill="none" xmlns="http://www.w3.org/2000/svg">
<g clip-path="url(#clip0_6400_4862)">
<mask id="mask0_6400_4862" style="mask-type:luminance" maskUnits="userSpaceOnUse" x="0" y="0" width="25" height="24">
<path d="M24.5 0H0.5V24H24.5V0Z" fill="white"/>
</mask>
<g mask="url(#mask0_6400_4862)">
<path d="M24.4994 12.0012C24.4944 15.0384 23.3427 17.9616 21.2747 20.1859C21.0285 20.4444 20.7824 20.6782 20.5239 20.9121C20.2655 21.1459 20.1054 21.2814 19.8839 21.4414C17.7782 23.0964 15.1774 23.9961 12.4991 23.9961C9.82085 23.9961 7.22018 23.0964 5.11441 21.4414C4.89286 21.2691 4.67132 21.0844 4.46209 20.8875C4.20398 20.6623 3.95752 20.424 3.72361 20.1736C3.40477 19.8325 3.10873 19.4707 2.83745 19.0906C1.31915 17.0317 0.5 14.5409 0.5 11.9827C0.5 9.42465 1.31915 6.93376 2.83745 4.87495C3.11194 4.50123 3.40783 4.1437 3.72361 3.80416C3.96977 3.5457 4.21592 3.31185 4.47439 3.078C4.73287 2.84415 4.89286 2.70876 5.11441 2.54877C7.22018 0.893795 9.82085 -0.00585938 12.4991 -0.00585938C15.1774 -0.00585938 17.7782 0.893795 19.8839 2.54877C20.1054 2.72107 20.327 2.90569 20.5362 3.10261C20.7944 3.3279 21.0408 3.56616 21.2747 3.81648C21.5936 4.15765 21.8895 4.51947 22.1609 4.89957C23.6853 6.9529 24.5055 9.44383 24.4994 12.0012Z" fill="#EFEBE9"/>
<path d="M10.0405 11.0776H9.69589C9.6475 10.4552 9.54871 9.83783 9.40049 9.23142C9.64531 9.23142 9.8801 9.13418 10.0532 8.96106C10.2263 8.78795 10.3236 8.55315 10.3236 8.30834C10.3236 8.06351 10.2263 7.82873 10.0532 7.65561C9.8801 7.4825 9.64531 7.38524 9.40049 7.38524H8.80972C8.0195 5.48324 6.74681 3.82026 5.11735 2.56055C4.89581 2.72055 4.68658 2.90517 4.47734 3.08979C4.26811 3.27441 3.97271 3.55749 3.72656 3.81596C5.01544 4.75403 6.06187 5.98611 6.77891 7.40985C6.57245 7.44963 6.38611 7.55961 6.2515 7.72113C6.1169 7.88265 6.04232 8.08578 6.04043 8.29602C6.04363 8.53985 6.14191 8.7728 6.31433 8.94522C6.48676 9.11765 6.71971 9.21593 6.96353 9.21912H7.50508C7.67201 9.82365 7.78729 10.4413 7.8497 11.0653H7.57892C7.33411 11.0653 7.09931 11.1626 6.9262 11.3357C6.75308 11.5088 6.65584 11.7436 6.65584 11.9884C6.65584 12.2332 6.75308 12.468 6.9262 12.6411C7.09931 12.8142 7.33411 12.9115 7.57892 12.9115H7.8497C7.78729 13.5355 7.67201 14.1531 7.50508 14.7577H6.96353C6.71971 14.7609 6.48676 14.8591 6.31433 15.0316C6.14191 15.2039 6.04363 15.4369 6.04043 15.6808C6.04232 15.8911 6.1169 16.0942 6.2515 16.2556C6.38611 16.4171 6.57245 16.5272 6.77891 16.567C6.06187 17.9906 5.01544 19.2227 3.72656 20.1608C3.96046 20.4112 4.20692 20.6494 4.46503 20.8747C4.67426 21.0716 4.89581 21.2563 5.11735 21.4285C6.74449 20.1614 8.01641 18.4952 8.80972 16.5916H9.42511C9.66992 16.5916 9.90472 16.4942 10.0778 16.3211C10.2509 16.148 10.3482 15.9133 10.3482 15.6685C10.3482 15.4237 10.2509 15.1888 10.0778 15.0157C9.90472 14.8426 9.66992 14.7454 9.42511 14.7454C9.57332 14.139 9.67211 13.5215 9.7205 12.8992H10.0405C10.2853 12.8992 10.5201 12.8019 10.6932 12.6288C10.8663 12.4557 10.9636 12.2209 10.9636 11.9761C10.9636 11.7313 10.8663 11.4965 10.6932 11.3234C10.5201 11.1503 10.2853 11.053 10.0405 11.053V11.0776ZM18.2252 16.5916C18.4316 16.5518 18.6181 16.4417 18.7526 16.2803C18.8872 16.1188 18.9619 15.9157 18.9637 15.7054C18.9605 15.4615 18.8623 15.2285 18.6898 15.0562C18.5174 14.8838 18.2845 14.7855 18.0406 14.7823H17.4991C17.3321 14.1777 17.2168 13.5601 17.1544 12.9361H17.4253C17.6701 12.9361 17.9049 12.8388 18.0779 12.6657C18.251 12.4926 18.3484 12.2578 18.3484 12.013C18.3484 11.7682 18.251 11.5334 18.0779 11.3603C17.9049 11.1872 17.6701 11.0899 17.4253 11.0899H17.1544C17.2168 10.4659 17.3321 9.84827 17.4991 9.24374H18.0406C18.2866 9.2405 18.5213 9.14052 18.6941 8.96544C18.8669 8.79038 18.9637 8.55429 18.9637 8.30834C18.9619 8.09808 18.8872 7.89497 18.7526 7.73343C18.6181 7.57191 18.4316 7.46193 18.2252 7.42217C18.9422 5.99843 19.9886 4.76633 21.2776 3.82826C21.0437 3.57795 20.7973 3.33969 20.5391 3.11441C20.3299 2.91747 20.1084 2.73287 19.8868 2.56055C18.2598 3.82767 16.9877 5.4939 16.1944 7.39755H15.5791C15.3342 7.39755 15.0994 7.4948 14.9263 7.66791C14.7532 7.84103 14.656 8.07582 14.656 8.32064C14.656 8.56547 14.7532 8.80025 14.9263 8.97336C15.0994 9.14648 15.3342 9.24374 15.5791 9.24374C15.4308 9.85013 15.332 10.4675 15.2837 11.0899H14.9637C14.7188 11.0899 14.4841 11.1872 14.3109 11.3603C14.1378 11.5334 14.0406 11.7682 14.0406 12.013C14.0406 12.2578 14.1378 12.4926 14.3109 12.6657C14.4841 12.8388 14.7188 12.9361 14.9637 12.9361H15.3083C15.3567 13.5585 15.4555 14.1759 15.6037 14.7823C15.3589 14.7823 15.1241 14.8795 14.9509 15.0526C14.7778 15.2258 14.6806 15.4606 14.6806 15.7054C14.6806 15.9502 14.7778 16.1849 14.9509 16.358C15.1241 16.5313 15.3589 16.6285 15.6037 16.6285H16.1944C16.9846 18.5305 18.2573 20.1934 19.8868 21.4532C20.1084 21.2932 20.3176 21.1085 20.5268 20.9239C20.7361 20.7392 21.0314 20.4562 21.2776 20.1977C19.9871 19.2562 18.9406 18.0197 18.2252 16.5916Z" fill="#EF5350"/>
</g>
</g>
<defs>
<clipPath id="clip0_6400_4862">
<rect width="24" height="24" fill="white" transform="translate(0.5)"/>
</clipPath>
</defs>
</svg>
