<svg width="25" height="24" viewBox="0 0 25 24" fill="none" xmlns="http://www.w3.org/2000/svg">
<g clip-path="url(#clip0_6400_4805)">
<g clip-path="url(#clip1_6400_4805)">
<mask id="mask0_6400_4805" style="mask-type:luminance" maskUnits="userSpaceOnUse" x="0" y="0" width="25" height="24">
<path d="M24.5 0H0.5V24H24.5V0Z" fill="white"/>
</mask>
<g mask="url(#mask0_6400_4805)">
<path d="M12.5 0C5.87258 0 0.5 5.37258 0.5 12C0.5 18.6275 5.87258 24 12.5 24C19.1275 24 24.5 18.6275 24.5 12C24.5 5.37258 19.1275 0 12.5 0Z" fill="#FF884D"/>
<path fill-rule="evenodd" clip-rule="evenodd" d="M14.4464 23.8456L14.4389 22.6251C14.448 22.4341 14.4526 22.2423 14.4526 22.0492C14.4526 15.4211 9.07932 10.0478 2.45106 10.0478C2.16236 10.0478 1.8759 10.0579 1.59204 10.078L0.652805 10.0633C0.564149 10.6093 0.512336 11.1677 0.5 11.7357L1.60253 11.7531C1.62754 11.7534 1.65255 11.7528 1.67748 11.7509C1.93273 11.732 2.19071 11.7224 2.45106 11.7224C8.15444 11.7224 12.7779 16.3459 12.7779 22.0492C12.7779 22.2228 12.7737 22.3951 12.7652 22.5663C12.7644 22.5817 12.7642 22.5972 12.7642 22.6126L12.7728 24C13.3413 23.9871 13.9001 23.9349 14.4464 23.8456ZM12.5141 1.11793e-05V0.837315C12.5141 0.851046 12.5138 0.864779 12.5131 0.878499C12.5046 1.04971 12.5004 1.22209 12.5004 1.39552C12.5004 7.0989 17.1239 11.7224 22.8272 11.7224C23.0876 11.7224 23.3456 11.7128 23.6009 11.6939C23.6266 11.692 23.6523 11.6913 23.678 11.6918L24.4964 11.7068C24.4988 11.8048 24.5 11.903 24.5 12.0015C24.5 12.4678 24.4733 12.9279 24.4217 13.3804L23.6852 13.3668C23.4017 13.3869 23.1157 13.397 22.8272 13.397C16.199 13.397 10.8258 8.02377 10.8258 1.39552C10.8258 1.20166 10.8303 1.00882 10.8395 0.817084V0.11373C11.3818 0.0387508 11.9356 0 12.4985 0C12.5036 0 12.5089 1.51615e-08 12.5141 1.11793e-05Z" fill="#ECEFF1"/>
<path fill-rule="evenodd" clip-rule="evenodd" d="M20.3234 3L19.6766 3.64671L4.14669 19.1766L3.5 19.8234C3.86446 20.2423 4.25766 20.6355 4.67657 21L5.32328 20.3533L20.8533 4.82328L21.5 4.17657C21.1355 3.75766 20.7422 3.36444 20.3234 3Z" fill="#ECEFF1"/>
</g>
</g>
</g>
<defs>
<clipPath id="clip0_6400_4805">
<rect width="25" height="24" fill="white"/>
</clipPath>
<clipPath id="clip1_6400_4805">
<rect width="24" height="24" fill="white" transform="translate(0.5)"/>
</clipPath>
</defs>
</svg>
