<svg width="14" height="15" viewBox="0 0 14 15" fill="none" xmlns="http://www.w3.org/2000/svg">
<path d="M7.67308 13.75H5.82692H7.67308ZM3.05769 5.95C3.05769 4.8467 3.4467 3.78859 4.13914 3.00844C4.83159 2.22828 5.77074 1.79 6.75 1.79C7.72926 1.79 8.66841 2.22828 9.36086 3.00844C10.0533 3.78859 10.4423 4.8467 10.4423 5.95V9.59C10.4423 10.0037 10.5882 10.4005 10.8479 10.6931C11.1075 10.9856 11.4597 11.15 11.8269 11.15H1.67308C2.0403 11.15 2.39248 10.9856 2.65215 10.6931C2.91181 10.4005 3.05769 10.0037 3.05769 9.59V5.95ZM12.75 5.8148C12.7495 4.82487 12.54 3.84927 12.1387 2.9686C11.7374 2.08793 11.156 1.32746 10.4423 0.75M0.75 5.8148C0.750498 4.82487 0.960032 3.84927 1.36129 2.9686C1.76256 2.08793 2.34403 1.32746 3.05769 0.75" fill="#F2EEFB"/>
<path d="M7.67308 13.75H5.82692M12.75 5.8148C12.7495 4.82487 12.54 3.84927 12.1387 2.9686C11.7374 2.08793 11.156 1.32746 10.4423 0.75M0.75 5.8148C0.750498 4.82487 0.960032 3.84927 1.36129 2.9686C1.76256 2.08793 2.34403 1.32746 3.05769 0.75M3.05769 5.95C3.05769 4.8467 3.4467 3.78859 4.13914 3.00844C4.83159 2.22828 5.77074 1.79 6.75 1.79C7.72926 1.79 8.66841 2.22828 9.36086 3.00844C10.0533 3.78859 10.4423 4.8467 10.4423 5.95V9.59C10.4423 10.0037 10.5882 10.4005 10.8479 10.6931C11.1075 10.9856 11.4597 11.15 11.8269 11.15H1.67308C2.0403 11.15 2.39248 10.9856 2.65215 10.6931C2.91181 10.4005 3.05769 10.0037 3.05769 9.59V5.95Z" stroke="#F2EEFB" stroke-width="1.5" stroke-linecap="round" stroke-linejoin="round"/>
</svg>
