<svg width="20" height="20" viewBox="0 0 20 20" fill="none" xmlns="http://www.w3.org/2000/svg">
<path d="M18.7089 1.35376L11.1671 0.0239542C10.3189 -0.125616 9.51 0.44079 9.36043 1.28903L9.28906 1.69384C10.3797 1.82821 11.3012 2.61392 11.5913 3.69653L12.0522 5.41665C12.2962 5.31083 12.5729 5.27271 12.8544 5.32235C13.3887 5.41657 13.7986 5.80106 13.9512 6.28493C14.2602 5.88246 14.7769 5.66133 15.3112 5.75555C16.0758 5.8904 16.5864 6.61958 16.4516 7.38423C16.1586 9.04571 14.3757 10.3811 13.5296 10.9304L14.8213 15.7516C14.8907 16.01 14.9194 16.2698 14.9131 16.5247L16 16.7163C16.8482 16.8659 17.6571 16.2995 17.8068 15.4512L19.9739 3.16055C20.1236 2.31223 19.5571 1.50333 18.7089 1.35376Z" fill="#BCCAD2"/>
<path d="M10.4636 3.99911C10.2768 3.30231 9.64673 2.84273 8.9581 2.84277C8.8245 2.84277 8.68865 2.86007 8.55344 2.89628L1.15634 4.87832C0.324348 5.10125 -0.169402 5.95645 0.0535277 6.78844L3.28364 18.8435C3.47037 19.5403 4.10048 19.9998 4.78911 19.9998C4.92271 19.9998 5.05857 19.9825 5.19372 19.9463L12.5908 17.9643C13.4228 17.7413 13.9166 16.8861 13.6937 16.0541L10.4636 3.99911ZM4.70743 12.2394C4.582 12.129 4.53517 11.9541 4.5886 11.7959L5.7197 8.44676C5.81431 8.16661 6.1636 8.07301 6.38563 8.26832L9.03978 10.6032C9.16521 10.7136 9.21204 10.8885 9.1586 11.0467L8.02751 14.3958C7.9329 14.676 7.5836 14.7697 7.36158 14.5743L4.70743 12.2394Z" fill="#BCCAD2"/>
</svg>
