<svg width="12" height="13" viewBox="0 0 12 13" fill="none" xmlns="http://www.w3.org/2000/svg">
<path fill-rule="evenodd" clip-rule="evenodd" d="M1.4717 7.22222C1.38162 7.22222 1.29524 7.18418 1.23155 7.11646C1.16786 7.04873 1.13208 6.95688 1.13208 6.86111V1.56481C1.13208 1.36548 1.28423 1.2037 1.4717 1.2037H10.5283C10.7158 1.2037 10.8679 1.36548 10.8679 1.56481V6.86111C10.8679 6.95688 10.8321 7.04873 10.7685 7.11646C10.7048 7.18418 10.6184 7.22222 10.5283 7.22222H1.4717ZM0 6.86111C0 7.72489 0.659321 8.42593 1.4717 8.42593H10.5283C11.3416 8.42593 12 7.72489 12 6.86111V1.56481C12 0.701037 11.3416 0 10.5283 0H1.4717C0.659321 0 0 0.701037 0 1.56481V6.86111ZM6 6.13889C5.51961 6.13889 5.05889 5.93598 4.7192 5.5748C4.37951 5.21362 4.18868 4.72375 4.18868 4.21296C4.18868 3.70218 4.37951 3.21231 4.7192 2.85113C5.05889 2.48995 5.51961 2.28704 6 2.28704C6.48039 2.28704 6.94111 2.48995 7.2808 2.85113C7.62049 3.21231 7.81132 3.70218 7.81132 4.21296C7.81132 4.72375 7.62049 5.21362 7.2808 5.5748C6.94111 5.93598 6.48039 6.13889 6 6.13889ZM1.81132 4.21296C1.81132 4.43643 1.89481 4.65075 2.04342 4.80877C2.19204 4.96678 2.3936 5.05556 2.60377 5.05556C2.81395 5.05556 3.01551 4.96678 3.16412 4.80877C3.31274 4.65075 3.39623 4.43643 3.39623 4.21296C3.39623 3.98949 3.31274 3.77518 3.16412 3.61716C3.01551 3.45914 2.81395 3.37037 2.60377 3.37037C2.3936 3.37037 2.19204 3.45914 2.04342 3.61716C1.89481 3.77518 1.81132 3.98949 1.81132 4.21296ZM8.60377 4.21296C8.60377 4.43643 8.68726 4.65075 8.83588 4.80877C8.98449 4.96678 9.18606 5.05556 9.39623 5.05556C9.6064 5.05556 9.80796 4.96678 9.95658 4.80877C10.1052 4.65075 10.1887 4.43643 10.1887 4.21296C10.1887 3.98949 10.1052 3.77518 9.95658 3.61716C9.80796 3.45914 9.6064 3.37037 9.39623 3.37037C9.18606 3.37037 8.98449 3.45914 8.83588 3.61716C8.68726 3.77518 8.60377 3.98949 8.60377 4.21296ZM6.56604 12.3981C6.56604 12.5578 6.5064 12.7109 6.40025 12.8237C6.2941 12.9366 6.15012 13 6 13C5.84988 13 5.7059 12.9366 5.59975 12.8237C5.4936 12.7109 5.43396 12.5578 5.43396 12.3981V10.4722C5.43396 10.3126 5.4936 10.1595 5.59975 10.0466C5.7059 9.93378 5.84988 9.87037 6 9.87037C6.15012 9.87037 6.2941 9.93378 6.40025 10.0466C6.5064 10.1595 6.56604 10.3126 6.56604 10.4722V12.3981ZM8.26415 12.1574C8.5766 12.1574 8.83019 11.8878 8.83019 11.5556V9.62963C8.83019 9.55059 8.81555 9.47233 8.7871 9.39931C8.75866 9.32629 8.71696 9.25994 8.6644 9.20406C8.61184 9.14817 8.54944 9.10384 8.48076 9.07359C8.41209 9.04335 8.33848 9.02778 8.26415 9.02778C8.18982 9.02778 8.11621 9.04335 8.04754 9.07359C7.97886 9.10384 7.91646 9.14817 7.8639 9.20406C7.81134 9.25994 7.76965 9.32629 7.7412 9.39931C7.71275 9.47233 7.69811 9.55059 7.69811 9.62963V11.5556C7.69811 11.8878 7.9517 12.1574 8.26415 12.1574ZM4.30189 11.5556C4.30189 11.7152 4.24225 11.8683 4.1361 11.9811C4.02995 12.094 3.88597 12.1574 3.73585 12.1574C3.58573 12.1574 3.44175 12.094 3.3356 11.9811C3.22945 11.8683 3.16981 11.7152 3.16981 11.5556V9.62963C3.16981 9.47001 3.22945 9.31693 3.3356 9.20406C3.44175 9.09119 3.58573 9.02778 3.73585 9.02778C3.88597 9.02778 4.02995 9.09119 4.1361 9.20406C4.24225 9.31693 4.30189 9.47001 4.30189 9.62963V11.5556Z" fill="#202120"/>
</svg>
