<svg width="150" height="150" viewBox="0 0 150 150" fill="none" xmlns="http://www.w3.org/2000/svg">
<g clip-path="url(#clip0_16756_49688)">
<g filter="url(#filter0_d_16756_49688)">
<rect x="66.039" y="55.792" width="44.5631" height="44.5631" rx="9.30527" transform="rotate(-30 66.039 55.792)" fill="#EF8031" stroke="black" stroke-width="2.3264"/>
<path d="M106.23 74.2253L109.137 79.2607L102.086 83.3315L99.1787 78.2961L106.23 74.2253ZM121.54 68.1747C121.289 70.6953 119.872 73.0629 117.51 74.4263L116.188 75.1895L113.246 70.0931C114.322 69.1955 114.912 67.8763 114.914 66.5244L119.168 64.0678L121.54 68.1747ZM89.4888 81.2022C90.1955 81.6097 90.9989 81.825 91.8145 81.8261L95.0342 87.4028C91.14 89.6509 86.1609 88.3169 83.9126 84.4228L83.9121 84.422L89.4888 81.2022ZM84.879 74.4638L79.8426 77.3715L75.7714 70.3198L80.8077 67.4121L84.879 74.4638ZM115.099 57.0165L111.383 59.1615L107.312 52.1098L111.027 49.9648L115.099 57.0165ZM77.9003 57.7241C77.4936 58.4302 77.2787 59.233 77.2776 60.0479L71.7001 63.2681C69.4521 59.374 70.7854 54.3954 74.6793 52.147L74.6801 52.1465L77.9003 57.7241ZM97.1553 39.1704C99.5163 37.8073 102.275 37.7631 104.583 38.8059L106.955 42.9136L102.699 45.3707C101.528 44.6965 100.091 44.5478 98.7763 45.0308L95.8334 39.9336L97.1553 39.1704ZM91.69 49.042L84.6391 53.1128L81.7309 48.0757L88.7818 44.0049L91.69 49.042Z" fill="white" fill-opacity="0.8"/>
<rect x="78.7495" y="59.1982" width="25.9525" height="25.9525" rx="2.3263" transform="rotate(-30 78.7495 59.1982)" fill="#EF8031"/>
<rect x="80.3384" y="59.624" width="23.6262" height="23.6262" rx="1.16315" transform="rotate(-30 80.3384 59.624)" stroke="white" stroke-opacity="0.8" stroke-width="2.3263"/>
<rect x="0.0687567" y="39.0088" width="43.3264" height="43.3264" rx="9.30527" transform="rotate(-30 0.0687567 39.0088)" fill="#1BAA04" stroke="black" stroke-width="2.3264"/>
<path fill-rule="evenodd" clip-rule="evenodd" d="M5.72875 46.4858C3.48038 42.5915 4.81466 37.6119 8.70895 35.3635L11.9281 40.9392C11.5206 41.6462 11.3051 42.4507 11.3044 43.2667L5.72875 46.4858ZM9.79978 53.537L13.8708 60.5883L18.9074 57.6804L14.8364 50.6292L9.79978 53.537ZM23.5175 64.4204L17.9419 67.6395C20.1902 71.5338 25.1698 72.8681 29.0641 70.6197L25.845 65.0441C25.029 65.0434 24.2245 64.8278 23.5175 64.4204ZM33.2075 61.5121L36.1154 66.5487L43.1666 62.4777L40.2587 57.4411L33.2075 61.5121ZM47.0758 52.9645L50.2178 58.4066L50.4687 58.2618C53.7153 56.3874 55.1826 52.6147 54.2781 49.1551L53.198 47.2844L47.8732 50.3586C47.8725 51.2838 47.5955 52.1942 47.0758 52.9645ZM44.3413 42.9962L49.127 40.2331L45.056 33.1819L40.2702 35.9449L44.3413 42.9962ZM35.6601 29.2049L40.9849 26.1306L39.9049 24.2599C37.361 21.7468 33.3601 21.1312 30.1135 23.0056L29.8627 23.1504L33.0047 28.5926C33.9316 28.5277 34.8585 28.743 35.6601 29.2049ZM25.7193 32.2581L22.8114 27.2215L15.7602 31.2925L18.6681 36.3291L25.7193 32.2581Z" fill="white" fill-opacity="0.8"/>
<rect x="12.7798" y="42.4146" width="24.7159" height="24.7159" rx="2.3263" transform="rotate(-30 12.7798 42.4146)" fill="#1BAA04"/>
<rect x="14.3687" y="42.8403" width="22.3896" height="22.3896" rx="1.16315" transform="rotate(-30 14.3687 42.8403)" stroke="white" stroke-opacity="0.8" stroke-width="2.3263"/>
<rect x="24.33" y="79.8867" width="43.3264" height="43.3264" rx="9.30527" transform="rotate(-30 24.33 79.8867)" fill="#1BAA04" stroke="black" stroke-width="2.3264"/>
<path fill-rule="evenodd" clip-rule="evenodd" d="M29.99 87.3637C27.7416 83.4694 29.0759 78.4898 32.9702 76.2415L36.1893 81.8171C35.7819 82.5241 35.5663 83.3286 35.5656 84.1446L29.99 87.3637ZM34.061 94.415L38.132 101.466L43.1686 98.5583L39.0976 91.5071L34.061 94.415ZM47.7787 105.298L42.2031 108.517C44.4515 112.412 49.4311 113.746 53.3254 111.498L50.1063 105.922C49.2903 105.921 48.4857 105.706 47.7787 105.298ZM57.4687 102.39L60.3766 107.427L67.4278 103.356L64.5199 98.319L57.4687 102.39ZM71.337 93.8424L74.4791 99.2846L74.7299 99.1397C77.9765 97.2653 79.4438 93.4926 78.5394 90.033L77.4593 88.1623L72.1345 91.2366C72.1337 92.1617 71.8567 93.0721 71.337 93.8424ZM68.6025 83.8741L73.3882 81.111L69.3172 74.0598L64.5315 76.8229L68.6025 83.8741ZM59.9214 70.0828L65.2462 67.0086L64.1661 65.1378C61.6223 62.6247 57.6213 62.0091 54.3747 63.8835L54.1239 64.0284L57.2659 69.4705C58.1928 69.4056 59.1198 69.6209 59.9214 70.0828ZM49.9805 73.136L47.0727 68.0994L40.0214 72.1704L42.9293 77.207L49.9805 73.136Z" fill="white" fill-opacity="0.8"/>
<rect x="37.041" y="83.2925" width="24.7159" height="24.7159" rx="2.3263" transform="rotate(-30 37.041 83.2925)" fill="#1BAA04"/>
<rect x="38.6299" y="83.7182" width="22.3896" height="22.3896" rx="1.16315" transform="rotate(-30 38.6299 83.7182)" stroke="white" stroke-opacity="0.8" stroke-width="2.3263"/>
<rect x="90.2997" y="96.6704" width="43.3264" height="43.3264" rx="9.30527" transform="rotate(-30 90.2997 96.6704)" fill="#1BAA04" stroke="black" stroke-width="2.3264"/>
<path fill-rule="evenodd" clip-rule="evenodd" d="M95.9597 104.147C93.7113 100.253 95.0456 95.2735 98.9399 93.0252L102.159 98.6008C101.752 99.3078 101.536 100.112 101.535 100.928L95.9597 104.147ZM100.031 111.199L104.102 118.25L109.138 115.342L105.067 108.291L100.031 111.199ZM113.748 122.082L108.173 125.301C110.421 129.195 115.401 130.53 119.295 128.281L116.076 122.706C115.26 122.705 114.455 122.489 113.748 122.082ZM123.438 119.174L126.346 124.21L133.398 120.139L130.49 115.103L123.438 119.174ZM137.307 110.626L140.449 116.068L140.7 115.923C143.946 114.049 145.414 110.276 144.509 106.817L143.429 104.946L138.104 108.02C138.103 108.945 137.826 109.856 137.307 110.626ZM134.572 100.658L139.358 97.8947L135.287 90.8435L130.501 93.6065L134.572 100.658ZM125.891 86.8665L131.216 83.7923L130.136 81.9215C127.592 79.4084 123.591 78.7928 120.344 80.6672L120.094 80.8121L123.236 86.2542C124.163 86.1893 125.089 86.4046 125.891 86.8665ZM115.95 89.9197L113.042 84.8831L105.991 88.9541L108.899 93.9907L115.95 89.9197Z" fill="white" fill-opacity="0.8"/>
<rect x="103.011" y="100.076" width="24.7159" height="24.7159" rx="2.3263" transform="rotate(-30 103.011 100.076)" fill="#1BAA04"/>
<rect x="104.6" y="100.502" width="22.3896" height="22.3896" rx="1.16315" transform="rotate(-30 104.6 100.502)" stroke="white" stroke-opacity="0.8" stroke-width="2.3263"/>
</g>
</g>
<defs>
<filter id="filter0_d_16756_49688" x="-5.77014" y="19.0796" width="159.701" height="130.671" filterUnits="userSpaceOnUse" color-interpolation-filters="sRGB">
<feFlood flood-opacity="0" result="BackgroundImageFix"/>
<feColorMatrix in="SourceAlpha" type="matrix" values="0 0 0 0 0 0 0 0 0 0 0 0 0 0 0 0 0 0 127 0" result="hardAlpha"/>
<feOffset dx="-0.498514" dy="10.4688"/>
<feGaussianBlur stdDeviation="3.46467"/>
<feComposite in2="hardAlpha" operator="out"/>
<feColorMatrix type="matrix" values="0 0 0 0 0 0 0 0 0 0 0 0 0 0 0 0 0 0 0.25 0"/>
<feBlend mode="normal" in2="BackgroundImageFix" result="effect1_dropShadow_16756_49688"/>
<feBlend mode="normal" in="SourceGraphic" in2="effect1_dropShadow_16756_49688" result="shape"/>
</filter>
<clipPath id="clip0_16756_49688">
<rect width="150" height="150" fill="white"/>
</clipPath>
</defs>
</svg>
