<svg width="26" height="24" viewBox="0 0 26 24" fill="none" xmlns="http://www.w3.org/2000/svg">
<g clip-path="url(#clip0_6400_4872)">
<mask id="mask0_6400_4872" style="mask-type:luminance" maskUnits="userSpaceOnUse" x="0" y="0" width="25" height="24">
<path d="M24.5 0H0.5V24H24.5V0Z" fill="white"/>
</mask>
<g mask="url(#mask0_6400_4872)">
<path d="M18.2928 9.63184L11.4453 17.1776C11.5833 17.4303 11.7176 17.6778 11.8406 17.9141C13.2213 20.5496 16.2296 20.3771 19.0728 18.2456C22.5806 15.6161 21.8718 11.5271 18.2928 9.63184Z" fill="#BF3333"/>
<path d="M11.1384 20.98L4.61719 14.4858C6.11944 12.889 6.65569 11.9935 7.35919 9.30553C8.42569 5.22853 13.9599 -5.38697 22.3802 4.20928C24.8304 7.00228 25.2144 10.6788 22.3967 13.813C18.7337 17.9088 11.0409 16.6593 11.1384 20.98Z" fill="#E24B4B"/>
<path d="M12.5967 17.9594L13.2117 17.8476L13.1202 17.7644L13.067 17.8101L6.21875 12.5361L7.90325 16.6289L11.8272 19.2689C11.8272 19.2689 11.9682 18.5601 12.2832 18.2594L12.5967 17.9594Z" fill="#D03F3F"/>
<path d="M19.1638 16.149C18.1145 16.5922 17.3353 16.8015 15.056 17.5162C11.3098 18.7425 11.3233 19.6275 11.1238 20.9655C11.0413 19.2937 11.1973 18.1125 14.7838 16.6665C17.5588 15.5475 15.2465 16.5465 18.7093 15.0997C20.585 14.2162 22.148 13.0177 23.0563 11.0625C24.0065 8.90773 23.8078 6.85048 22.8883 5.13823C22.4488 4.29823 22.7263 4.85023 22.3655 4.20898C22.5965 4.46548 22.8605 4.75423 23.0503 5.01823C24.38 6.73423 24.968 9.12673 24.0388 11.4217C23.12 13.7467 21.2728 15.1837 19.1638 16.149Z" fill="#D03F3F"/>
<path d="M13.4557 20.5549L11.2897 22.9414C11.0985 23.1512 10.832 23.2768 10.5485 23.2904C10.265 23.3042 9.9876 23.2052 9.77699 23.0149L2.60849 16.5094C2.3985 16.3183 2.27286 16.0517 2.25908 15.7682C2.24531 15.4846 2.34452 15.2072 2.53499 14.9966L4.70099 12.6101C4.89216 12.4003 5.15868 12.2748 5.44218 12.261C5.7257 12.2473 6.00312 12.3464 6.21374 12.5366L13.3822 19.0421C13.5922 19.2332 13.7179 19.4998 13.7316 19.7833C13.7454 20.0669 13.6462 20.3443 13.4557 20.5549Z" fill="#E24B4B"/>
<path d="M7.26661 17.1211C7.56835 16.7885 7.54342 16.2745 7.21092 15.9727C6.87843 15.6709 6.36426 15.6959 6.06252 16.0283C5.76078 16.3609 5.78571 16.8751 6.1182 17.1767C6.4507 17.4785 6.96486 17.4536 7.26661 17.1211Z" fill="#D03F3F"/>
<path d="M9.92286 19.5254C10.2246 19.1929 10.1997 18.6787 9.86718 18.377C9.53467 18.0752 9.02052 18.1001 8.71878 18.4327C8.41702 18.7652 8.44195 19.2793 8.77446 19.5811C9.10696 19.8829 9.62112 19.8578 9.92286 19.5254Z" fill="#D03F3F"/>
<path d="M0.630643 19.3045L0.619393 19.294C0.58225 19.2579 0.552591 19.2148 0.532111 19.1671C0.511632 19.1196 0.500732 19.0684 0.500036 19.0165C0.499339 18.9648 0.508859 18.9133 0.528052 18.8652C0.547245 18.817 0.575735 18.7732 0.611893 18.736C0.632143 18.7158 2.60689 16.7365 5.08264 18.9828C6.40939 20.1873 7.97689 19.8288 9.02914 18.7068C9.10054 18.6312 9.1987 18.5866 9.30259 18.5826C9.40646 18.5785 9.50782 18.6153 9.58489 18.685L9.59014 18.6895C9.66677 18.7617 9.71171 18.8611 9.71507 18.9663C9.71845 19.0714 9.68 19.1737 9.60814 19.2505C8.30464 20.6343 6.25264 21.115 4.55014 19.57C2.68414 17.8765 1.32889 19.1388 1.17964 19.2895C1.10755 19.362 1.01034 19.404 0.908142 19.4068C0.805944 19.4095 0.706587 19.3729 0.630643 19.3045Z" fill="#3E4347"/>
<path d="M4.03509 23.5921L4.01934 23.5771C1.50008 21.0354 1.88558 20.4519 2.01309 20.2599C2.31459 19.8054 2.98884 19.9959 3.60834 20.2426C4.14234 20.4556 4.57884 20.4429 4.94409 20.2051C5.94909 19.5519 6.24609 17.3529 6.27534 16.5601C6.27477 16.5064 6.2851 16.4532 6.30574 16.4035C6.32637 16.3539 6.35686 16.309 6.39537 16.2715C6.43386 16.2342 6.47958 16.2049 6.52972 16.1856C6.57985 16.1664 6.6334 16.1574 6.68707 16.1595C6.74076 16.1614 6.79347 16.1743 6.84201 16.1974C6.89056 16.2204 6.93391 16.2531 6.96948 16.2933C7.00503 16.3336 7.03204 16.3807 7.04886 16.4317C7.06567 16.4827 7.07196 16.5366 7.06734 16.5901C7.06284 16.7236 6.92709 19.8616 5.37684 20.8711C4.78809 21.2544 4.09434 21.2911 3.31509 20.9814C3.14028 20.9083 2.95996 20.8491 2.77584 20.8044C3.00084 21.2521 3.75309 22.1829 4.58259 23.0199C4.65753 23.0926 4.70065 23.1922 4.70254 23.2966C4.70445 23.4012 4.66498 23.5021 4.59274 23.5776C4.52052 23.6532 4.42135 23.697 4.31691 23.6997C4.21245 23.7025 4.11114 23.6638 4.03509 23.5921Z" fill="#3E4347"/>
<g opacity="0.1">
<path opacity="0.1" d="M19.7051 4.83362C19.1478 5.14712 18.5141 4.76012 17.9171 4.55687C16.9323 4.24187 15.8906 4.44587 14.9703 4.82462C13.2168 5.54612 11.2391 7.06787 10.4366 5.83112C9.6086 4.49162 12.8366 1.38962 15.7061 1.09337C18.8343 0.799373 21.2163 3.97412 19.7051 4.83362Z" fill="white"/>
</g>
</g>
</g>
<defs>
<clipPath id="clip0_6400_4872">
<rect width="24" height="24" fill="white" transform="translate(0.5)"/>
</clipPath>
</defs>
</svg>
