<svg width="29" height="28" viewBox="0 0 29 28" fill="none" xmlns="http://www.w3.org/2000/svg">
<path fill-rule="evenodd" clip-rule="evenodd" d="M28.352 19.494V13.8232C28.352 9.81403 28.352 7.80801 27.1058 6.56328C25.9362 5.39228 24.0961 5.32139 20.5547 5.31714V28.0001C24.0961 27.9958 25.9362 27.925 27.1058 26.7539C28.352 25.5092 28.352 23.5018 28.352 19.494ZM24.0989 12.407C24.4749 12.407 24.8355 12.5563 25.1014 12.8222C25.3672 13.0881 25.5166 13.4487 25.5166 13.8247C25.5166 14.2007 25.3672 14.5612 25.1014 14.8271C24.8355 15.093 24.4749 15.2423 24.0989 15.2423C23.7229 15.2423 23.3623 15.093 23.0964 14.8271C22.8306 14.5612 22.6812 14.2007 22.6812 13.8247C22.6812 13.4487 22.8306 13.0881 23.0964 12.8222C23.3623 12.5563 23.7229 12.407 24.0989 12.407ZM24.0989 18.0777C24.4749 18.0777 24.8355 18.2271 25.1014 18.4929C25.3672 18.7588 25.5166 19.1194 25.5166 19.4954C25.5166 19.8714 25.3672 20.232 25.1014 20.4979C24.8355 20.7637 24.4749 20.9131 24.0989 20.9131C23.7229 20.9131 23.3623 20.7637 23.0964 20.4979C22.8306 20.232 22.6812 19.8714 22.6812 19.4954C22.6812 19.1194 22.8306 18.7588 23.0964 18.4929C23.3623 18.2271 23.7229 18.0777 24.0989 18.0777Z" fill="#040C01"/>
<path d="M19.238 1.75561L16.1829 5.31683H18.4299V27.9998H8.50611C4.49689 27.9998 2.49087 27.9998 1.24614 26.7536C-8.45006e-08 25.5089 0 23.5029 0 19.4951V13.8244C0 9.81231 -8.45006e-08 7.8077 1.24614 6.56298C2.49087 5.31683 4.49689 5.31683 8.50611 5.31683H12.1694L9.11571 1.75561C8.94294 1.54037 8.86063 1.26638 8.88619 0.991556C8.91176 0.716735 9.04318 0.462623 9.25269 0.28294C9.4622 0.103256 9.73337 0.0120824 10.0089 0.0286929C10.2844 0.0453034 10.5426 0.168396 10.729 0.37195L14.1768 4.3925L17.6218 0.37195C17.8053 0.157634 18.0664 0.0249843 18.3477 0.00318317C18.629 -0.018618 18.9074 0.0722149 19.1217 0.2557C19.336 0.439184 19.4687 0.700291 19.4905 0.981578C19.5123 1.26287 19.4215 1.54129 19.238 1.75561Z" fill="#040C01"/>
</svg>
