<svg width="29" height="29" viewBox="0 0 29 29" fill="none" xmlns="http://www.w3.org/2000/svg">
<path fill-rule="evenodd" clip-rule="evenodd" d="M14.3784 24.4446C14.7306 24.4446 15.0705 24.5739 15.3336 24.808C15.5968 25.042 15.7649 25.3645 15.8062 25.7143L15.8162 25.8825V27.3204C15.8158 27.6869 15.6755 28.0394 15.4239 28.3059C15.1723 28.5724 14.8285 28.7328 14.4626 28.7543C14.0968 28.7758 13.7366 28.6567 13.4555 28.4215C13.1745 28.1863 12.9939 27.8526 12.9506 27.4887L12.9405 27.3204V25.8825C12.9405 25.5012 13.092 25.1354 13.3617 24.8658C13.6313 24.5961 13.997 24.4446 14.3784 24.4446ZM7.26108 21.4969C7.53063 21.7665 7.68206 22.1322 7.68206 22.5135C7.68206 22.8948 7.53063 23.2604 7.26108 23.5301L6.24453 24.5467C6.11189 24.684 5.95324 24.7936 5.77781 24.8689C5.60239 24.9443 5.41372 24.984 5.2228 24.9856C5.03189 24.9873 4.84256 24.9509 4.66585 24.8786C4.48915 24.8063 4.32861 24.6995 4.1936 24.5645C4.0586 24.4295 3.95184 24.269 3.87954 24.0922C3.80725 23.9155 3.77087 23.7262 3.77253 23.5353C3.77419 23.3443 3.81385 23.1556 3.88921 22.9802C3.96456 22.8048 4.0741 22.6461 4.21143 22.5135L5.22798 21.4969C5.49761 21.2273 5.86327 21.0759 6.24453 21.0759C6.62579 21.0759 6.99145 21.2273 7.26108 21.4969ZM23.5288 21.4969L24.5453 22.5135C24.8072 22.7847 24.9522 23.1479 24.9489 23.5249C24.9456 23.9019 24.7944 24.2626 24.5278 24.5292C24.2612 24.7958 23.9006 24.947 23.5236 24.9503C23.1466 24.9536 22.7834 24.8086 22.5122 24.5467L21.4957 23.5301C21.2338 23.2589 21.0888 22.8957 21.0921 22.5186C21.0954 22.1416 21.2466 21.781 21.5132 21.5144C21.7798 21.2478 22.1404 21.0966 22.5174 21.0933C22.8944 21.09 23.2576 21.2349 23.5288 21.4969ZM15.2655 6.82685e-08C15.9666 -0.00015261 16.6435 0.25579 17.1691 0.71971C17.6947 1.18363 18.0327 1.82357 18.1196 2.51923L18.666 6.8905C20.3162 7.83568 21.6078 9.29963 22.3401 11.0547C23.0724 12.8098 23.2043 14.7577 22.7153 16.5956C22.2263 18.4334 21.1438 20.0581 19.6361 21.2171C18.1284 22.3762 16.28 23.0045 14.3784 23.0045C12.4767 23.0045 10.6283 22.3762 9.12066 21.2171C7.61297 20.0581 6.53047 18.4334 6.04146 16.5956C5.55245 14.7577 5.68435 12.8098 6.41664 11.0547C7.14893 9.29963 8.44058 7.83568 10.0907 6.8905L10.6371 2.51923C10.7241 1.82357 11.0621 1.18363 11.5877 0.71971C12.1133 0.25579 12.7902 -0.00015261 13.4912 6.82685e-08H15.2655ZM2.87568 12.9413C3.25701 12.9413 3.62273 13.0928 3.89238 13.3624C4.16203 13.6321 4.31351 13.9978 4.31351 14.3792C4.31351 14.7605 4.16203 15.1263 3.89238 15.3959C3.62273 15.6656 3.25701 15.8171 2.87568 15.8171H1.43784C1.0565 15.8171 0.69078 15.6656 0.421133 15.3959C0.151486 15.1263 0 14.7605 0 14.3792C0 13.9978 0.151486 13.6321 0.421133 13.3624C0.69078 13.0928 1.0565 12.9413 1.43784 12.9413H2.87568ZM27.3189 12.9413C27.7003 12.9413 28.066 13.0928 28.3356 13.3624C28.6053 13.6321 28.7568 13.9978 28.7568 14.3792C28.7568 14.7605 28.6053 15.1263 28.3356 15.3959C28.066 15.6656 27.7003 15.8171 27.3189 15.8171H25.8811C25.4997 15.8171 25.134 15.6656 24.8644 15.3959C24.5947 15.1263 24.4432 14.7605 24.4432 14.3792C24.4432 13.9978 24.5947 13.6321 24.8644 13.3624C25.134 13.0928 25.4997 12.9413 25.8811 12.9413H27.3189ZM24.5453 4.2131C24.8149 4.48275 24.9663 4.84842 24.9663 5.22971C24.9663 5.61099 24.8149 5.97666 24.5453 6.24631L23.5288 7.26292C23.3961 7.40026 23.2375 7.5098 23.0621 7.58516C22.8866 7.66052 22.698 7.70019 22.5071 7.70185C22.3161 7.70351 22.1268 7.66712 21.9501 7.59482C21.7734 7.52252 21.6129 7.41575 21.4779 7.28074C21.3429 7.14573 21.2361 6.98519 21.1638 6.80847C21.0915 6.63176 21.0551 6.44241 21.0568 6.25149C21.0584 6.06056 21.0981 5.87188 21.1735 5.69645C21.2488 5.52102 21.3583 5.36235 21.4957 5.22971L22.5122 4.2131C22.7819 3.94353 23.1475 3.7921 23.5288 3.7921C23.91 3.7921 24.2757 3.94353 24.5453 4.2131ZM6.24453 4.2131L7.26108 5.22971C7.51652 5.50212 7.65596 5.86323 7.6499 6.23664C7.64384 6.61004 7.49274 6.96643 7.22859 7.23041C6.96445 7.49439 6.60796 7.64524 6.23458 7.65103C5.86119 7.65683 5.5002 7.51713 5.22798 7.26148L4.21143 6.24488C3.95599 5.97246 3.81655 5.61135 3.82261 5.23795C3.82867 4.86454 3.97976 4.50815 4.24391 4.24417C4.50806 3.98019 4.86454 3.82935 5.23793 3.82355C5.61132 3.81775 5.97231 3.95745 6.24453 4.2131ZM15.2655 2.87583H13.4912L13.1318 5.75167H15.625L15.2655 2.87583Z" fill="#040C01"/>
</svg>
