<svg width="24" height="24" viewBox="0 0 24 24" fill="none" xmlns="http://www.w3.org/2000/svg">
<g clip-path="url(#clip0_6400_4799)">
<path d="M20.5037 5.21361L18.8189 9.69993L15.9601 10.5161L12.9772 7.96267V5.06565L16.3658 2.24023C17.9837 2.87976 19.4012 3.91066 20.5037 5.21361ZM12.0227 5.06565V7.96267L9.04451 10.5161L6.18091 9.69993L4.49615 5.21361C5.59864 3.91066 7.01612 2.87976 8.63405 2.24023L12.0227 5.06565ZM9.59815 14.7781L7.95157 17.2503H3.41275C2.72548 16.0715 2.2673 14.7542 2.08594 13.3463V13.3415L5.90885 10.6115L8.76292 11.4276L9.59815 14.7781ZM16.2799 17.804V17.8086L15.0247 22.1948C14.2133 22.3952 13.3686 22.5002 12.4999 22.5002C11.7172 22.5002 10.9488 22.4144 10.2138 22.2473L8.72951 17.7944L10.3665 15.3413H14.6333L16.2799 17.804ZM22.9139 13.3415V13.3463C22.7326 14.7542 22.2743 16.0715 21.587 17.2503H17.0483L15.4017 14.7781L16.237 11.4276L19.091 10.6115L22.9139 13.3415Z" fill="#EDEDED"/>
<path d="M21.1862 6.10563C20.9714 5.79541 20.7472 5.49951 20.5037 5.21315L18.8189 9.69946L15.9601 10.5156L12.9772 7.96221V5.06519L16.3658 2.23977C16.0222 2.10135 15.6689 1.98204 15.3062 1.88181C14.4137 1.63363 13.4735 1.5 12.4999 1.5C11.5263 1.5 10.586 1.63363 9.69356 1.88181C9.33083 1.98204 8.97766 2.10135 8.63402 2.23977L12.0226 5.06519V7.96221L9.04448 10.5156L6.18086 9.69946L4.4961 5.21315C4.2527 5.49951 4.02839 5.79541 3.81362 6.10563C2.67295 7.79038 2 9.81878 2 11.9999C2 12.0763 2 12.1526 2.00477 12.229C2.00954 12.606 2.03818 12.9783 2.08591 13.341L5.90882 10.611L8.76289 11.4272L9.5981 14.7776L7.95154 17.2498H3.41272C3.60362 17.5791 3.81362 17.8989 4.03793 18.2043C5.29315 19.9177 7.05427 21.2302 9.10175 21.9318C9.46447 22.0606 9.83674 22.1656 10.2138 22.2468L8.72948 17.7939L10.3665 15.3408H14.6333L16.2799 17.8035V17.8083L15.0246 22.1943C15.3969 22.0989 15.7597 21.9891 16.1128 21.8554C18.0697 21.1395 19.7497 19.8556 20.9618 18.2043C21.1862 17.8989 21.3962 17.5791 21.587 17.2498H17.0483L15.4017 14.7776L16.237 11.4272L19.091 10.611L22.9139 13.341C22.9616 12.9783 22.9903 12.606 22.9951 12.229C22.9999 12.1526 22.9999 12.0763 22.9999 11.9999C22.9999 9.81878 22.3268 7.79038 21.1862 6.10563Z" fill="#2F5F99"/>
</g>
<defs>
<clipPath id="clip0_6400_4799">
<rect width="24" height="24" fill="white"/>
</clipPath>
</defs>
</svg>
