<svg width="23" height="17" viewBox="0 0 23 17" fill="none" xmlns="http://www.w3.org/2000/svg">
<path d="M21.1645 7.91405C20.302 4.01494 19.0227 1.52773 16.9724 0.92163C16.5753 0.80579 16.1635 0.748003 15.7499 0.750065C14.4894 0.750065 13.4947 1.50007 11.2498 1.50007C9.00496 1.50007 8.00839 0.750065 6.74978 0.750065C6.31887 0.74778 5.88975 0.805523 5.47477 0.92163C3.42162 1.52773 2.15317 4.01729 1.28082 7.91405C0.390184 11.8942 0.551435 15.0391 2.29239 15.6429C3.51115 16.0648 4.60101 15.1924 5.63321 13.9085C6.8051 12.446 8.24839 11.996 11.2498 11.996C14.2513 11.996 15.6383 12.446 16.8121 13.9085C17.8433 15.1933 18.9735 16.0549 20.1599 15.6504C22.0828 14.9937 22.0556 11.9411 21.1645 7.91405Z" stroke="#8C8C8C" stroke-width="1.50002" stroke-miterlimit="10"/>
<path d="M12.9375 7.68776C13.4553 7.68776 13.875 7.26803 13.875 6.75025C13.875 6.23248 13.4553 5.81274 12.9375 5.81274C12.4197 5.81274 12 6.23248 12 6.75025C12 7.26803 12.4197 7.68776 12.9375 7.68776Z" fill="#8C8C8C"/>
<path d="M15 9.75026C14.8145 9.75026 14.6331 9.69522 14.4789 9.5921C14.3247 9.48898 14.2045 9.34243 14.1336 9.17098C14.0628 8.99954 14.0443 8.81091 14.0807 8.62899C14.1171 8.44707 14.2066 8.28003 14.3379 8.14901C14.4693 8.01799 14.6365 7.92888 14.8185 7.89297C15.0006 7.85706 15.1891 7.87597 15.3604 7.94728C15.5317 8.0186 15.6779 8.13913 15.7807 8.29361C15.8834 8.44809 15.938 8.62958 15.9375 8.8151C15.9369 9.06333 15.8378 9.30119 15.6621 9.4765C15.4863 9.65181 15.2482 9.75027 15 9.75026Z" fill="#8C8C8C"/>
<path d="M15 5.62478C15.5178 5.62478 15.9375 5.20504 15.9375 4.68727C15.9375 4.16949 15.5178 3.74976 15 3.74976C14.4822 3.74976 14.0625 4.16949 14.0625 4.68727C14.0625 5.20504 14.4822 5.62478 15 5.62478Z" fill="#8C8C8C"/>
<path d="M17.0625 7.68776C17.5803 7.68776 18 7.26803 18 6.75025C18 6.23248 17.5803 5.81274 17.0625 5.81274C16.5447 5.81274 16.125 6.23248 16.125 6.75025C16.125 7.26803 16.5447 7.68776 17.0625 7.68776Z" fill="#8C8C8C"/>
<path d="M6.75002 4.50024V9.00029M9.00005 6.75027H4.5" stroke="#8C8C8C" stroke-width="1.50002" stroke-linecap="round" stroke-linejoin="round"/>
</svg>
