<svg width="24" height="24" viewBox="0 0 24 24" fill="none" xmlns="http://www.w3.org/2000/svg">
<g clip-path="url(#clip0_6400_4847)">
<g clip-path="url(#clip1_6400_4847)">
<mask id="mask0_6400_4847" style="mask-type:luminance" maskUnits="userSpaceOnUse" x="0" y="0" width="25" height="24">
<path d="M24.5 0H0.5V24H24.5V0Z" fill="white"/>
</mask>
<g mask="url(#mask0_6400_4847)">
<path d="M20.5765 0L15.1577 10.2975C14.7902 10.983 14.0642 11.103 13.3314 11.2875C10.0974 12.102 4.31794 10.8997 2.81044 11.5223C1.4972 12.0645 0.5912 16.2255 1.25345 17.1398C2.53069 18.879 9.96619 17.685 12.2649 17.268C13.1029 17.1192 13.9139 16.8459 14.6709 16.4573C15.5995 15.9765 16.6547 15.216 17.164 14.0992C17.6575 13.023 20.815 6.489 23.9582 0H20.5765Z" fill="#5A5F63"/>
<path d="M20.5848 0L15.7578 9.17475L19.0803 10.1077C20.3861 7.398 22.1793 3.69225 23.9673 0H20.5848Z" fill="#E24B4B"/>
<path d="M13.3827 11.2764L13.3377 11.2876C10.7809 11.9311 6.64091 11.3176 4.27091 11.3386C3.13016 13.6651 2.44766 15.8566 2.53016 17.8254C4.90541 18.4111 9.55991 17.7361 11.7507 17.3589C12.5149 15.5289 13.0167 13.4634 13.3827 11.2764Z" fill="#E9EFF4"/>
<path d="M10.5872 17.5467C11.2707 15.5702 11.8023 13.5443 12.1772 11.4867C12.0804 11.498 11.9814 11.5077 11.8824 11.516C11.5111 13.5798 10.9782 15.6113 10.2887 17.5917L10.5872 17.5467ZM5.44744 11.3675C5.35069 11.363 5.25394 11.3585 5.16019 11.3555C4.38719 13.5083 3.79784 15.7227 3.39844 17.975C3.49144 17.9855 3.58594 17.9945 3.68269 18.0035C4.08071 15.7452 4.67111 13.5251 5.44744 11.3675ZM8.10919 11.5175L7.82869 11.5017C7.07596 13.6245 6.50123 15.8063 6.11044 18.0245L6.40294 18.0087C6.79181 15.8016 7.3625 13.6305 8.10919 11.5175ZM6.77869 11.4402L6.50044 11.4237C5.73142 13.581 5.14363 15.7988 4.74319 18.0537H5.03119C5.42557 15.8037 6.01016 13.5913 6.77869 11.4402ZM10.9127 11.5715C10.8167 11.5745 10.7222 11.5775 10.6247 11.579C10.2234 12.833 9.52144 15.053 8.92144 17.7755L9.21544 17.7387C9.81319 15.0252 10.5107 12.8135 10.9127 11.5715ZM9.54619 11.573L9.26194 11.5662C8.58658 13.6571 8.01019 15.7788 7.53469 17.924L7.82644 17.8977C8.43394 15.1197 9.13669 12.8562 9.54619 11.573Z" fill="#DEE4E9"/>
<path d="M21.3514 22.5854C21.3514 23.3669 19.4869 23.9999 17.1874 23.9999C14.8879 23.9999 13.0234 23.3669 13.0234 22.5854V20.4067C13.0234 19.6252 14.8879 18.9922 17.1874 18.9922C19.4869 18.9922 21.3514 19.6252 21.3514 20.4067V22.5854Z" fill="#3E4347"/>
<path d="M19.2031 20.3537V23.8254C19.6291 23.751 20.046 23.6316 20.4466 23.4692V20.3537H19.2031ZM20.8224 20.1707V23.2787C20.8996 23.2322 20.9664 23.1834 21.0286 23.1339V20.1699L20.8224 20.1707Z" fill="#5A5F63"/>
<path d="M17.1874 21.8212C19.4871 21.8212 21.3514 21.1879 21.3514 20.4067C21.3514 19.6255 19.4871 18.9922 17.1874 18.9922C14.8877 18.9922 13.0234 19.6255 13.0234 20.4067C13.0234 21.1879 14.8877 21.8212 17.1874 21.8212Z" fill="#5A5F63"/>
</g>
</g>
</g>
<defs>
<clipPath id="clip0_6400_4847">
<rect width="24" height="24" fill="white"/>
</clipPath>
<clipPath id="clip1_6400_4847">
<rect width="24" height="24" fill="white" transform="translate(0.5)"/>
</clipPath>
</defs>
</svg>
