<svg width="15" height="15" viewBox="0 0 15 15" fill="none" xmlns="http://www.w3.org/2000/svg">
<path d="M7.47908 5.62427C7.11223 5.62427 6.75362 5.73305 6.4486 5.93686C6.14358 6.14067 5.90584 6.43035 5.76545 6.76927C5.62507 7.10819 5.58834 7.48113 5.65991 7.84093C5.73147 8.20073 5.90813 8.53123 6.16753 8.79063C6.42693 9.05003 6.75742 9.22668 7.11722 9.29825C7.47702 9.36982 7.84996 9.33309 8.18888 9.1927C8.5278 9.05231 8.81749 8.81458 9.0213 8.50955C9.22511 8.20453 9.33389 7.84592 9.33389 7.47908C9.33389 7.2355 9.28591 6.99431 9.1927 6.76927C9.09949 6.54424 8.96286 6.33976 8.79063 6.16753C8.61839 5.99529 8.41392 5.85867 8.18888 5.76545C7.96385 5.67224 7.72265 5.62427 7.47908 5.62427ZM14.9058 3.79189C14.9019 3.21433 14.7955 2.64204 14.5917 2.10162C14.4416 1.70617 14.2093 1.34705 13.9102 1.04796C13.6111 0.748863 13.252 0.516593 12.8565 0.366475C12.3161 0.162643 11.7438 0.0562882 11.1663 0.0523535C10.2015 -5.01511e-08 9.91726 0 7.47908 0C5.0409 0 4.75669 -5.01511e-08 3.79189 0.0523535C3.21433 0.0562882 2.64204 0.162643 2.10162 0.366475C1.70617 0.516593 1.34705 0.748863 1.04796 1.04796C0.748863 1.34705 0.516593 1.70617 0.366475 2.10162C0.162643 2.64204 0.0562882 3.21433 0.0523535 3.79189C-5.01511e-08 4.75669 0 5.0409 0 7.47908C0 9.91726 -5.01511e-08 10.2015 0.0523535 11.1663C0.0604039 11.7459 0.166615 12.3199 0.366475 12.864C0.515928 13.2577 0.748004 13.6147 1.04707 13.9111C1.34488 14.212 1.70477 14.4442 2.10162 14.5917C2.64204 14.7955 3.21433 14.9019 3.79189 14.9058C4.75669 14.9582 5.0409 14.9582 7.47908 14.9582C9.91726 14.9582 10.2015 14.9582 11.1663 14.9058C11.7438 14.9019 12.3161 14.7955 12.8565 14.5917C13.2534 14.4442 13.6133 14.212 13.9111 13.9111C14.2101 13.6147 14.4422 13.2577 14.5917 12.864C14.7953 12.3209 14.9016 11.7462 14.9058 11.1663C14.9582 10.2015 14.9582 9.91726 14.9582 7.47908C14.9582 5.0409 14.9582 4.75669 14.9058 3.79189ZM13.0061 9.77515C12.9821 10.2367 12.8836 10.6913 12.7144 11.1214C12.5692 11.4801 12.3534 11.8061 12.0797 12.0797C11.8061 12.3534 11.4801 12.5692 11.1214 12.7144C10.6872 12.8742 10.2301 12.9626 9.76767 12.9762H5.19048C4.72807 12.9626 4.27092 12.8742 3.83677 12.7144C3.46588 12.5766 3.13095 12.3567 2.85701 12.0712C2.58602 11.8029 2.37673 11.4788 2.24372 11.1214C2.08334 10.6877 1.99737 10.23 1.98943 9.76767V5.19048C1.99737 4.72814 2.08334 4.27047 2.24372 3.83677C2.38155 3.46588 2.60143 3.13095 2.88692 2.85701C3.15642 2.58748 3.48021 2.37842 3.83677 2.24372C4.27092 2.08397 4.72807 1.99557 5.19048 1.98196H9.76767C10.2301 1.99557 10.6872 2.08397 11.1214 2.24372C11.4923 2.38155 11.8272 2.60143 12.1011 2.88692C12.3721 3.15523 12.5814 3.47937 12.7144 3.83677C12.8742 4.27092 12.9626 4.72807 12.9762 5.19048V7.47908C12.9762 9.01977 13.0286 9.17683 13.0061 9.76767V9.77515ZM11.8095 4.21072C11.7204 3.96913 11.58 3.74974 11.398 3.56768C11.2159 3.38562 10.9965 3.24522 10.7549 3.15617C10.4232 3.04119 10.0738 2.98549 9.7228 2.99163H5.23535C4.88254 2.99508 4.53312 3.06091 4.20324 3.18609C3.96535 3.27109 3.74828 3.40576 3.56646 3.58113C3.38464 3.75651 3.24223 3.96858 3.14869 4.20324C3.04008 4.53633 2.98702 4.88503 2.99163 5.23535V9.7228C2.99905 10.0752 3.06475 10.424 3.18609 10.7549C3.27514 10.9965 3.41553 11.2159 3.5976 11.398C3.77966 11.58 3.99905 11.7204 4.24064 11.8095C4.55974 11.9268 4.89554 11.9925 5.23535 12.0039H9.7228C10.0756 12.0005 10.425 11.9346 10.7549 11.8095C10.9965 11.7204 11.2159 11.58 11.398 11.398C11.58 11.2159 11.7204 10.9965 11.8095 10.7549C11.9346 10.425 12.0005 10.0756 12.0039 9.7228V5.23535C12.0041 4.88219 11.9382 4.53211 11.8095 4.20324V4.21072ZM7.47908 10.3361C7.10424 10.3361 6.73309 10.2621 6.38688 10.1185C6.04067 9.97479 5.72621 9.76423 5.46151 9.49883C5.19681 9.23344 4.98707 8.91842 4.84431 8.57184C4.70154 8.22526 4.62856 7.85391 4.62955 7.47908C4.62955 6.9137 4.7973 6.36103 5.11157 5.89103C5.42583 5.42104 5.87248 5.05486 6.39496 4.83884C6.91745 4.62282 7.49228 4.56668 8.04669 4.67753C8.60109 4.78837 9.11015 5.06122 9.50941 5.46153C9.90867 5.86183 10.1802 6.3716 10.2896 6.9263C10.399 7.481 10.3413 8.05568 10.1239 8.5776C9.90655 9.09952 9.53919 9.5452 9.06838 9.85823C8.59756 10.1713 8.04446 10.3376 7.47908 10.3361ZM10.4707 5.183C10.3054 5.1655 10.1524 5.08743 10.0412 4.96384C9.92997 4.84025 9.86844 4.67988 9.86844 4.51362C9.86844 4.34737 9.92997 4.187 10.0412 4.0634C10.1524 3.93981 10.3054 3.86175 10.4707 3.84425C10.636 3.86175 10.789 3.93981 10.9002 4.0634C11.0114 4.187 11.073 4.34737 11.073 4.51362C11.073 4.67988 11.0114 4.84025 10.9002 4.96384C10.789 5.08743 10.636 5.1655 10.4707 5.183Z" fill="#040C01"/>
</svg>
