<svg width="36" height="26" viewBox="0 0 36 26" fill="none" xmlns="http://www.w3.org/2000/svg">
<path d="M14.6407 22.0246C14.6407 23.7552 16.0409 25.1711 17.7872 25.1711C19.5334 25.1711 20.9336 23.7552 20.9336 22.0246C20.9336 20.2941 19.5177 18.8782 17.7872 18.8782C16.0566 18.8782 14.6407 20.2941 14.6407 22.0246ZM26.6915 16.3454C24.316 13.9698 21.1538 12.6641 17.7872 12.6641C14.4205 12.6641 11.2584 13.9698 8.88281 16.3454L11.101 18.5636C12.8788 16.7859 15.2543 15.7947 17.7714 15.7947C20.2886 15.7947 22.6641 16.7701 24.4418 18.5636L26.66 16.3454H26.6915Z" fill="#040C01"/>
<path d="M31.1466 11.9088C27.5755 8.3376 22.8401 6.37109 17.7901 6.37109C12.7401 6.37109 8.00477 8.3376 4.43359 11.9088L6.66755 14.127C9.64091 11.1536 13.5897 9.51751 17.7901 9.51751C21.9906 9.51751 25.9393 11.1536 28.9127 14.127L31.1466 11.9088Z" fill="#040C01"/>
<path d="M0 7.37834L2.21822 9.59656C6.37149 5.4433 11.9092 3.14641 17.793 3.14641C23.6768 3.14641 29.1987 5.4433 33.3677 9.59656L35.5859 7.37834C30.8349 2.62725 24.5106 0 17.793 0C11.0754 0 4.75108 2.61152 0 7.37834Z" fill="#040C01"/>
</svg>
