<svg width="24" height="24" viewBox="0 0 24 24" fill="none" xmlns="http://www.w3.org/2000/svg">
<g clip-path="url(#clip0_1304_6312)">
<g clip-path="url(#clip1_1304_6312)">
<path d="M5.15625 4.78125C5.88112 4.78125 6.46875 4.19362 6.46875 3.46875C6.46875 2.74388 5.88112 2.15625 5.15625 2.15625C4.43138 2.15625 3.84375 2.74388 3.84375 3.46875C3.84375 4.19362 4.43138 4.78125 5.15625 4.78125Z" fill="#8C8C8C"/>
<path d="M18.8438 4.78125C19.5686 4.78125 20.1562 4.19362 20.1562 3.46875C20.1562 2.74388 19.5686 2.15625 18.8438 2.15625C18.1189 2.15625 17.5312 2.74388 17.5312 3.46875C17.5312 4.19362 18.1189 4.78125 18.8438 4.78125Z" fill="#8C8C8C"/>
<path d="M12 2.71875C12.7249 2.71875 13.3125 2.13112 13.3125 1.40625C13.3125 0.681376 12.7249 0.09375 12 0.09375C11.2751 0.09375 10.6875 0.681376 10.6875 1.40625C10.6875 2.13112 11.2751 2.71875 12 2.71875Z" fill="#8C8C8C"/>
<path d="M17.3438 10.7815H6.65625C6.30815 10.7815 5.97431 10.9198 5.72817 11.1659C5.48203 11.4121 5.34375 11.7459 5.34375 12.094H18.6562C18.6562 11.7459 18.518 11.4121 18.2718 11.1659C18.0257 10.9198 17.6918 10.7815 17.3438 10.7815ZM21.75 13.4065H16.8439V23.9065H21.75C22.3219 23.9065 22.8703 23.6793 23.2747 23.275C23.6791 22.8706 23.9062 22.3221 23.9062 21.7503V15.5628C23.9062 14.9909 23.6791 14.4424 23.2747 14.0381C22.8703 13.6337 22.3219 13.4065 21.75 13.4065ZM22.0875 16.6998L19.8375 21.1998C19.799 21.2769 19.7456 21.3456 19.6805 21.4021C19.6154 21.4586 19.5398 21.5017 19.4581 21.5289C19.3763 21.5562 19.29 21.5671 19.204 21.561C19.118 21.5549 19.0341 21.5319 18.957 21.4934C18.8799 21.4548 18.8112 21.4015 18.7547 21.3364C18.6982 21.2713 18.6551 21.1957 18.6278 21.1139C18.6006 21.0322 18.5897 20.9459 18.5958 20.8599C18.6019 20.7739 18.6248 20.69 18.6634 20.6129L20.4375 17.0628H19.2495C19.0755 17.0627 18.9086 16.9935 18.7856 16.8704C18.6625 16.7474 18.5933 16.5805 18.5933 16.4065C18.5933 16.2325 18.6624 16.0655 18.7855 15.9425C18.9085 15.8194 19.0755 15.7503 19.2495 15.7503H21.4995C21.6114 15.7501 21.7215 15.7786 21.8193 15.833C21.9171 15.8873 21.9994 15.9658 22.0583 16.061C22.1173 16.1561 22.1509 16.2648 22.156 16.3766C22.1611 16.4884 22.1375 16.5996 22.0875 16.6998ZM8.46863 23.9065H15.5314V13.4065H8.46863V23.9065ZM10.2184 16.4065C10.2183 16.3203 10.2353 16.2349 10.2683 16.1552C10.3012 16.0756 10.3496 16.0032 10.4106 15.9422C10.4716 15.8813 10.544 15.8329 10.6237 15.8C10.7034 15.7671 10.7888 15.7502 10.875 15.7503H13.125C13.2369 15.7502 13.3469 15.7787 13.4446 15.8332C13.5423 15.8876 13.6245 15.9661 13.6833 16.0613C13.7421 16.1564 13.7756 16.2651 13.7806 16.3768C13.7856 16.4886 13.762 16.5997 13.7119 16.6998L11.4619 21.1998C11.4243 21.2784 11.3714 21.3488 11.3063 21.4067C11.2413 21.4647 11.1653 21.5092 11.0828 21.5375C11.0004 21.5658 10.9131 21.5774 10.8262 21.5716C10.7392 21.5658 10.6543 21.5427 10.5763 21.5037C10.4983 21.4647 10.4289 21.4106 10.3721 21.3445C10.3153 21.2784 10.2722 21.2017 10.2454 21.1187C10.2186 21.0358 10.2085 20.9484 10.2159 20.8615C10.2232 20.7747 10.2478 20.6901 10.2881 20.6129L12.0626 17.0628H10.875C10.701 17.0628 10.534 16.9936 10.411 16.8705C10.2879 16.7475 10.2184 16.5806 10.2184 16.4065ZM0.09375 15.5628V21.7503C0.09375 22.3221 0.320926 22.8706 0.725301 23.275C1.12968 23.6793 1.67813 23.9065 2.25 23.9065H7.15613V13.4065H2.25C1.67813 13.4065 1.12968 13.6337 0.725301 14.0381C0.320926 14.4424 0.09375 14.9909 0.09375 15.5628ZM4.74975 15.7503C4.86161 15.7502 4.97163 15.7787 5.06935 15.8332C5.16707 15.8876 5.24924 15.9661 5.30805 16.0613C5.36687 16.1564 5.40037 16.2651 5.40537 16.3768C5.41037 16.4886 5.3867 16.5997 5.33663 16.6998L3.08663 21.1998C3.04809 21.2769 2.99475 21.3456 2.92964 21.4021C2.86454 21.4586 2.78895 21.5017 2.70719 21.5289C2.62542 21.5562 2.53909 21.5671 2.45312 21.561C2.36715 21.5549 2.28322 21.5319 2.20613 21.4934C2.12903 21.4548 2.06028 21.4015 2.0038 21.3364C1.94732 21.2713 1.90422 21.1957 1.87696 21.1139C1.84969 21.0322 1.83879 20.9459 1.84489 20.8599C1.85099 20.7739 1.87397 20.69 1.9125 20.6129L3.68775 17.0628H2.49975C2.3257 17.0628 2.15878 16.9936 2.03571 16.8705C1.91264 16.7475 1.8435 16.5806 1.8435 16.4065C1.84345 16.3203 1.86039 16.235 1.89335 16.1553C1.92632 16.0757 1.97465 16.0033 2.0356 15.9424C2.09655 15.8814 2.16891 15.8331 2.24856 15.8001C2.3282 15.7671 2.41356 15.7502 2.49975 15.7503H4.74975ZM6.315 9.49376C6.42809 9.47811 6.54208 9.46984 6.65625 9.46901H17.3438C17.4579 9.46984 17.5719 9.47811 17.685 9.49376L18.435 6.06213C18.0776 6.00514 17.7358 5.87485 17.4311 5.67944C17.1265 5.48403 16.8655 5.22773 16.6646 4.92663L14.625 6.00026L13.1385 3.77051C12.7835 3.94227 12.3943 4.03149 12 4.03149C11.6057 4.03149 11.2165 3.94227 10.8615 3.77051L9.375 6.00026L7.335 4.92663C7.13414 5.22773 6.87317 5.48403 6.56851 5.67944C6.26384 5.87485 5.92206 6.00514 5.56462 6.06213L6.315 9.49376Z" fill="#8C8C8C"/>
</g>
</g>
<defs>
<clipPath id="clip0_1304_6312">
<rect width="24" height="24" fill="white"/>
</clipPath>
<clipPath id="clip1_1304_6312">
<rect width="24" height="24" fill="white"/>
</clipPath>
</defs>
</svg>
