<svg width="12" height="13" viewBox="0 0 12 13" fill="none" xmlns="http://www.w3.org/2000/svg">
<path d="M6 10.5098L3.18351 12.8249C3.04395 12.9478 2.89171 13.006 2.72678 12.9994C2.56185 12.9929 2.41595 12.9415 2.28908 12.8454C2.16221 12.7492 2.06401 12.6195 1.99449 12.4561C1.92497 12.2928 1.92167 12.1152 1.98459 11.9234L3.06932 8.13335L0.309923 6.02318C0.15768 5.91392 0.0625283 5.77051 0.0244676 5.59296C-0.0135931 5.4154 -0.00724962 5.25151 0.043498 5.10127C0.0942456 4.95103 0.183054 4.81773 0.309923 4.70136C0.436792 4.585 0.589035 4.52709 0.766652 4.52763H4.17309L5.27685 0.594127C5.34028 0.402915 5.43873 0.255955 5.5722 0.153247C5.70566 0.050539 5.84826 -0.000541984 6 4.33587e-06C6.15174 0.000550656 6.29459 0.0519049 6.42856 0.154067C6.56254 0.256229 6.66073 0.402915 6.72315 0.594127L7.82691 4.52763H11.2333C11.411 4.52763 11.5632 4.58582 11.6901 4.70218C11.8169 4.81855 11.9058 4.95158 11.9565 5.10127C12.0073 5.25096 12.0136 5.41486 11.9755 5.59296C11.9375 5.77106 11.8423 5.91447 11.6901 6.02318L8.93068 8.13335L10.0154 11.9234C10.0788 12.1147 10.0758 12.2922 10.0063 12.4561C9.93675 12.62 9.8383 12.7498 9.71092 12.8454C9.58354 12.941 9.43764 12.9923 9.27322 12.9994C9.1088 13.0065 8.95656 12.9483 8.81649 12.8249L6 10.5098Z" fill="#F2EEFB"/>
</svg>
