<svg width="18" height="18" viewBox="0 0 18 18" fill="none" xmlns="http://www.w3.org/2000/svg">
<path d="M3.82692 8.75039V5.51362C3.83654 4.87738 3.9716 4.2493 4.22439 3.66535C4.47717 3.0814 4.8427 2.55306 5.30003 2.11061C5.75736 1.66817 6.29751 1.3203 6.88951 1.08696C7.48152 0.853613 8.11376 0.739371 8.75 0.750777C9.38624 0.739371 10.0185 0.853613 10.6105 1.08696C11.2025 1.3203 11.7426 1.66817 12.2 2.11061C12.6573 2.55306 13.0228 3.0814 13.2756 3.66535C13.5284 4.2493 13.6635 4.87738 13.6731 5.51362V8.75039M11.2115 15.2116C11.8644 15.2116 12.4905 14.9523 12.9521 14.4907C13.4137 14.0291 13.6731 13.403 13.6731 12.7502V9.9811M11.2115 15.2116C11.2115 15.6196 11.0495 16.0109 10.7609 16.2994C10.4724 16.5879 10.0811 16.75 9.67308 16.75H7.82692C7.4189 16.75 7.02758 16.5879 6.73907 16.2994C6.45055 16.0109 6.28846 15.6196 6.28846 15.2116C6.28846 14.8036 6.45055 14.4123 6.73907 14.1238C7.02758 13.8353 7.4189 13.6732 7.82692 13.6732H9.67308C10.0811 13.6732 10.4724 13.8353 10.7609 14.1238C11.0495 14.4123 11.2115 14.8036 11.2115 15.2116ZM1.98077 6.90432H3.21154C3.37475 6.90432 3.53127 6.96916 3.64668 7.08456C3.76209 7.19996 3.82692 7.35648 3.82692 7.51968V11.2118C3.82692 11.375 3.76209 11.5315 3.64668 11.6469C3.53127 11.7623 3.37475 11.8272 3.21154 11.8272H1.98077C1.65435 11.8272 1.3413 11.6975 1.11048 11.4667C0.87967 11.2359 0.75 10.9229 0.75 10.5965V8.13503C0.75 7.80863 0.87967 7.49559 1.11048 7.26479C1.3413 7.03399 1.65435 6.90432 1.98077 6.90432ZM15.5192 11.8272H14.2885C14.1253 11.8272 13.9687 11.7623 13.8533 11.6469C13.7379 11.5315 13.6731 11.375 13.6731 11.2118V7.51968C13.6731 7.35648 13.7379 7.19996 13.8533 7.08456C13.9687 6.96916 14.1253 6.90432 14.2885 6.90432H15.5192C15.8457 6.90432 16.1587 7.03399 16.3895 7.26479C16.6203 7.49559 16.75 7.80863 16.75 8.13503V10.5965C16.75 10.9229 16.6203 11.2359 16.3895 11.4667C16.1587 11.6975 15.8457 11.8272 15.5192 11.8272Z" stroke="#BCCAD2" stroke-width="1.5" stroke-linecap="round" stroke-linejoin="round"/>
</svg>
