<svg width="12" height="12" viewBox="0 0 12 12" fill="none" xmlns="http://www.w3.org/2000/svg">
<path fill-rule="evenodd" clip-rule="evenodd" d="M0 4.37867V7.62133C0 9.15067 8.41477e-08 9.91467 0.509647 10.39C0.972 10.8213 1.69129 10.8607 3.048 10.8647C2.97671 10.4147 2.96188 9.878 2.95765 9.246C2.95765 9.18168 2.97107 9.118 2.99715 9.05859C3.02324 8.99917 3.06146 8.9452 3.10965 8.89975C3.15784 8.85431 3.21504 8.81828 3.27798 8.79372C3.34092 8.76917 3.40837 8.75658 3.47647 8.75667C3.54461 8.75587 3.61224 8.76777 3.67551 8.79166C3.73877 8.81556 3.79644 8.85099 3.84521 8.89593C3.89397 8.94088 3.93289 8.99445 3.95973 9.0536C3.98658 9.11275 4.00082 9.17632 4.00165 9.24067C4.00588 9.95 4.02494 10.4527 4.10047 10.834C4.17318 11.202 4.28894 11.414 4.45835 11.5727C4.65106 11.7527 4.92141 11.8693 5.43247 11.9327C5.95765 11.9993 6.65365 12 7.65247 12H8.34776C9.34659 12 10.0426 11.9987 10.5685 11.9333C11.0788 11.8693 11.3492 11.752 11.5412 11.5727C11.7339 11.3927 11.8595 11.1407 11.928 10.6647C11.9986 10.1753 12 9.52533 12 8.59467V3.40533C12 2.474 11.9986 1.82533 11.928 1.33533C11.8595 0.859333 11.7339 0.606667 11.5419 0.427333C11.3492 0.247333 11.0788 0.130667 10.5678 0.0673334C10.0433 4.47035e-08 9.34729 0 8.34847 0H7.65318C6.65435 0 5.95835 0.00133327 5.43247 0.0666666C4.92212 0.130667 4.65176 0.248 4.45906 0.427333C4.28965 0.585333 4.17388 0.798 4.10118 1.166C4.02565 1.54733 4.00659 2.05 4.00235 2.75933C4.00152 2.82368 3.98728 2.88725 3.96044 2.9464C3.9336 3.00555 3.89468 3.05912 3.84591 3.10407C3.79714 3.14901 3.73948 3.18445 3.67621 3.20834C3.61294 3.23224 3.54531 3.24413 3.47718 3.24333C3.40908 3.24342 3.34163 3.23083 3.27868 3.20628C3.21574 3.18172 3.15854 3.14569 3.11036 3.10025C3.06217 3.0548 3.02394 3.00083 2.99786 2.94141C2.97178 2.882 2.95835 2.81832 2.95835 2.754C2.96259 2.122 2.97741 1.58533 3.04871 1.13533C1.692 1.13933 0.973412 1.17867 0.510353 1.61C0.000705915 2.08533 0 2.85 0 4.37867ZM1.71882 6.344C1.67042 6.29913 1.63197 6.2456 1.60572 6.18653C1.57947 6.12747 1.56595 6.06406 1.56595 6C1.56595 5.93594 1.57947 5.87253 1.60572 5.81347C1.63197 5.7544 1.67042 5.70087 1.71882 5.656L3.10941 4.35867C3.2079 4.26722 3.34048 4.21598 3.47859 4.21598C3.6167 4.21598 3.74928 4.26722 3.84776 4.35867C3.89617 4.40354 3.93462 4.45707 3.96087 4.51613C3.98712 4.5752 4.00064 4.63861 4.00064 4.70267C4.00064 4.76672 3.98712 4.83014 3.96087 4.8892C3.93462 4.94827 3.89617 5.0018 3.84776 5.04667L3.34659 5.51333H8.34847C8.63647 5.51333 8.87082 5.73133 8.87082 6C8.87082 6.26867 8.63647 6.48667 8.34847 6.48667H3.34588L3.84706 6.95333C3.89546 6.9982 3.93392 7.05173 3.96016 7.1108C3.98641 7.16986 3.99993 7.23328 3.99993 7.29733C3.99993 7.36139 3.98641 7.4248 3.96016 7.48387C3.93392 7.54293 3.89546 7.59646 3.84706 7.64133C3.74857 7.73278 3.61599 7.78402 3.47788 7.78402C3.33977 7.78402 3.20719 7.73278 3.10871 7.64133L1.71882 6.344Z" fill="#FD4585"/>
</svg>
