<svg width="16" height="18" viewBox="0 0 16 18" fill="none" xmlns="http://www.w3.org/2000/svg">
<path fill-rule="evenodd" clip-rule="evenodd" d="M16 7.51658C16 4.50029 16 2.99267 15.326 1.90921C15.034 1.44006 14.6589 1.03724 14.222 0.723739C13.213 -2.56013e-07 11.81 0 9 0H7C4.191 0 2.787 -2.56013e-07 1.778 0.723739C1.34106 1.03719 0.965911 1.44002 0.674 1.90921C-2.38419e-07 2.99267 0 4.49921 0 7.51658C0 10.5329 -2.38419e-07 12.0405 0.674 13.124C0.965911 13.5931 1.34106 13.996 1.778 14.3094C2.659 14.9419 3.842 15.0214 6 15.0321L7.106 17.4073C7.18914 17.5855 7.31679 17.7352 7.47468 17.8399C7.63256 17.9446 7.81445 18 8 18C8.18555 18 8.36744 17.9446 8.52532 17.8399C8.68321 17.7352 8.81086 17.5855 8.894 17.4073L10 15.0332C12.158 15.0224 13.34 14.9419 14.222 14.3094C14.6589 13.9959 15.034 13.5931 15.326 13.124C16 12.0405 16 10.534 16 7.51658ZM5 4.29519C4.73478 4.29519 4.48043 4.40832 4.29289 4.6097C4.10536 4.81108 4 5.0842 4 5.36899C4 5.65378 4.10536 5.9269 4.29289 6.12828C4.48043 6.32965 4.73478 6.44279 5 6.44279H11C11.2652 6.44279 11.5196 6.32965 11.7071 6.12828C11.8946 5.9269 12 5.65378 12 5.36899C12 5.0842 11.8946 4.81108 11.7071 4.6097C11.5196 4.40832 11.2652 4.29519 11 4.29519H5ZM5 8.59038C4.73478 8.59038 4.48043 8.70351 4.29289 8.90489C4.10536 9.10627 4 9.37939 4 9.66418C4 9.94897 4.10536 10.2221 4.29289 10.4235C4.48043 10.6248 4.73478 10.738 5 10.738H8C8.26522 10.738 8.51957 10.6248 8.70711 10.4235C8.89464 10.2221 9 9.94897 9 9.66418C9 9.37939 8.89464 9.10627 8.70711 8.90489C8.51957 8.70351 8.26522 8.59038 8 8.59038H5Z" />
</svg>
