<svg width="22" height="21" viewBox="0 0 22 21" fill="none" xmlns="http://www.w3.org/2000/svg">
<path d="M6.25 6.75001H15.25M6.25 10.75H11.75M0.75 8.75001C0.75 7.98001 0.763 7.22701 0.79 6.50001C0.873 4.12701 0.915 2.94001 1.88 1.96701C2.845 0.995012 4.066 0.943012 6.506 0.838012C7.91988 0.778653 9.33487 0.749313 10.75 0.750012C12.23 0.750012 13.655 0.780012 14.994 0.838012C17.434 0.943012 18.654 0.995012 19.62 1.96801C20.585 2.94001 20.627 4.12701 20.71 6.50001C20.7627 7.99955 20.7627 9.50048 20.71 11C20.627 13.373 20.585 14.56 19.62 15.533C18.655 16.505 17.434 16.557 14.994 16.662C14.2593 16.6933 13.501 16.7167 12.719 16.732C11.979 16.746 11.608 16.752 11.282 16.877C10.956 17.002 10.682 17.235 10.134 17.705L7.955 19.575C7.84895 19.6659 7.71906 19.7244 7.58073 19.7437C7.44241 19.763 7.30146 19.7422 7.17461 19.6837C7.04776 19.6253 6.94033 19.5317 6.86507 19.4141C6.78981 19.2964 6.74987 19.1597 6.75 19.02V16.672L6.506 16.662C4.066 16.557 2.846 16.505 1.88 15.532C0.915 14.56 0.873 13.373 0.79 11C0.763481 10.2503 0.750146 9.50019 0.75 8.75001Z" stroke="#8C8C8C" stroke-width="1.5" stroke-linecap="round" stroke-linejoin="round"/>
</svg>
