<svg width="21" height="21" viewBox="0 0 21 21" fill="none" xmlns="http://www.w3.org/2000/svg">
<path d="M10.5 12.975L12.425 14.125C12.6083 14.2417 12.7877 14.2377 12.963 14.113C13.1383 13.9883 13.2007 13.8173 13.15 13.6L12.65 11.425L14.35 9.95C14.5167 9.8 14.5667 9.621 14.5 9.413C14.4333 9.205 14.2833 9.09233 14.05 9.075L11.825 8.9L10.95 6.825C10.8667 6.625 10.7167 6.525 10.5 6.525C10.2833 6.525 10.1333 6.625 10.05 6.825L9.175 8.9L6.95 9.075C6.71667 9.09167 6.56667 9.20433 6.5 9.413C6.43333 9.62167 6.48333 9.80067 6.65 9.95L8.35 11.425L7.85 13.6C7.8 13.8167 7.86267 13.9877 8.038 14.113C8.21333 14.2383 8.39233 14.2423 8.575 14.125L10.5 12.975ZM7.15 18.5H4.5C3.95 18.5 3.47933 18.3043 3.088 17.913C2.69667 17.5217 2.50067 17.0507 2.5 16.5V13.85L0.575 11.9C0.391667 11.7 0.25 11.4793 0.15 11.238C0.05 10.9967 0 10.7507 0 10.5C0 10.2493 0.05 10.0037 0.15 9.763C0.25 9.52233 0.391667 9.30133 0.575 9.1L2.5 7.15V4.5C2.5 3.95 2.696 3.47933 3.088 3.088C3.48 2.69667 3.95067 2.50067 4.5 2.5H7.15L9.1 0.575C9.3 0.391667 9.521 0.25 9.763 0.15C10.005 0.05 10.2507 0 10.5 0C10.7493 0 10.9953 0.05 11.238 0.15C11.4807 0.25 11.7013 0.391667 11.9 0.575L13.85 2.5H16.5C17.05 2.5 17.521 2.696 17.913 3.088C18.305 3.48 18.5007 3.95067 18.5 4.5V7.15L20.425 9.1C20.6083 9.3 20.75 9.521 20.85 9.763C20.95 10.005 21 10.2507 21 10.5C21 10.7493 20.95 10.9953 20.85 11.238C20.75 11.4807 20.6083 11.7013 20.425 11.9L18.5 13.85V16.5C18.5 17.05 18.3043 17.521 17.913 17.913C17.5217 18.305 17.0507 18.5007 16.5 18.5H13.85L11.9 20.425C11.7 20.6083 11.4793 20.75 11.238 20.85C10.9967 20.95 10.7507 21 10.5 21C10.2493 21 10.0037 20.95 9.763 20.85C9.52233 20.75 9.30133 20.6083 9.1 20.425L7.15 18.5Z" fill="#8C8C8C"/>
</svg>
