<svg width="19" height="19" viewBox="0 0 19 19" fill="none" xmlns="http://www.w3.org/2000/svg">
<path fill-rule="evenodd" clip-rule="evenodd" d="M0 9.49969C0 8.2133 0.251918 6.98246 0.755828 5.80726C1.25968 4.63209 1.93539 3.62095 2.78282 2.7739C3.63027 1.92686 4.64001 1.25277 5.81205 0.751656C6.9841 0.250556 8.21325 0 9.49974 0C10.7925 0 12.0248 0.250556 13.1968 0.751656C14.369 1.25277 15.3787 1.92686 16.2261 2.7739C17.0735 3.62095 17.7477 4.63069 18.2484 5.80312C18.7492 6.97554 18.9996 8.20788 19 9.50026C19 10.7867 18.7496 12.0159 18.2484 13.1879C17.7473 14.3599 17.0731 15.3698 16.2261 16.2172C15.3791 17.0646 14.368 17.7402 13.1928 18.2442C12.0175 18.748 10.7868 19 9.50031 19C8.21391 19 6.9847 18.748 5.81265 18.2442C4.64062 17.7402 3.63087 17.0646 2.78343 16.2172C1.93599 15.3698 1.26028 14.3599 0.756441 13.1879C0.252531 12.0159 0 10.7861 0 9.49969ZM0.814312 10.3035C0.814312 10.5322 0.869915 10.8555 0.981134 11.2731C1.09235 11.6907 1.25939 12.1343 1.48227 12.6042C1.68019 13.0249 1.94002 13.4609 2.26185 13.9121C2.58364 14.3634 2.86505 14.7143 3.1061 14.9649C3.3472 15.2154 3.49242 15.3375 3.54191 15.3311C3.57277 15.3189 3.59912 15.2803 3.62088 15.2154C3.6323 15.1813 3.6433 15.1431 3.65384 15.1004C3.6634 15.062 3.67263 15.0199 3.68146 14.9743C3.70006 14.8786 3.71548 14.8121 3.72773 14.7749C3.80217 14.4531 3.87639 14.1995 3.9504 14.0143V13.9959C3.9504 13.9215 3.88229 13.7791 3.74618 13.569C3.61 13.3588 3.44455 13.113 3.24978 12.8316C3.05507 12.5501 2.91751 12.3321 2.83716 12.1772C2.74456 11.998 2.644 11.7629 2.53553 11.472C2.42709 11.181 2.34513 10.9475 2.28975 10.7714C2.2343 10.5952 2.20029 10.4761 2.18763 10.4139C2.16903 10.3708 1.94024 10.3027 1.50127 10.2097C1.39007 10.1911 1.27404 10.1586 1.15332 10.1123C1.03261 10.066 0.956789 10.0428 0.925911 10.0428H0.888523C0.839049 10.0614 0.814312 10.1487 0.814312 10.3035ZM7.37291 15.3982C7.36066 15.3859 7.35453 15.3612 7.35453 15.3239C7.35415 15.2372 7.38815 15.13 7.45663 15.0034C7.48413 14.9525 7.52102 14.8892 7.56735 14.8134C7.6364 14.7003 7.72637 14.5596 7.83724 14.3912C8.02249 14.1099 8.17705 13.864 8.30093 13.6539C8.32516 13.6094 8.35736 13.553 8.39764 13.4843C8.41883 13.4483 8.4422 13.4091 8.46775 13.3664C8.70924 12.9583 8.89488 12.6554 9.02464 12.4575C9.15451 12.2595 9.25351 12.1574 9.32153 12.151H9.39581C9.47609 12.151 9.7621 12.1682 10.2537 12.2021C10.7453 12.2362 11.1582 12.2564 11.4922 12.2627H12.6055C13.1498 12.2627 13.4467 12.2752 13.4961 12.3001C13.5582 12.337 13.6357 12.5487 13.7282 12.9354C13.8208 13.3222 13.8919 13.6546 13.9414 13.9329C14.0158 14.6006 14.053 15.0768 14.053 15.3614C14.053 15.5348 14.0406 15.6462 14.0156 15.6957C13.9602 15.7634 13.7623 15.9085 13.4218 16.1315C13.0815 16.3543 12.7475 16.5554 12.4197 16.7347C12.1723 16.8708 11.7967 17.0347 11.2928 17.2262C10.7888 17.4178 10.4844 17.5137 10.3789 17.5137C10.2796 17.5137 10.0477 17.4192 9.68316 17.2305C9.31857 17.0416 9.02493 16.8576 8.80206 16.6783C8.56095 16.499 8.32592 16.3103 8.09669 16.1125C7.98905 16.0194 7.893 15.9344 7.80864 15.857C7.71345 15.7699 7.63308 15.6928 7.56768 15.6256C7.55195 15.6095 7.5372 15.5942 7.5234 15.5796C7.49513 15.5501 7.47082 15.524 7.4505 15.5012C7.40262 15.4478 7.37678 15.4134 7.37291 15.3982ZM13.2123 4.82545C13.2187 4.89352 13.2819 5.02039 13.4023 5.20603C13.5227 5.39168 13.6694 5.61115 13.8429 5.86446C14.0162 6.1178 14.146 6.32817 14.2323 6.4956C14.3994 6.7988 14.5571 7.11586 14.7055 7.44676C14.8539 7.77762 14.9683 8.0405 15.0487 8.23524C15.129 8.42999 15.191 8.55521 15.2345 8.61107C15.2963 8.68545 15.6612 8.72269 16.3294 8.72269C16.4161 8.72269 16.478 8.72887 16.5153 8.74111C16.6327 8.73475 16.8043 8.73931 17.03 8.75479C17.2555 8.77019 17.3871 8.77789 17.4242 8.77789C17.4492 8.77789 17.4739 8.77475 17.4985 8.76839L17.5358 8.75889C17.5853 8.75889 17.61 8.62275 17.61 8.35038C17.61 7.89286 17.5666 7.39193 17.48 6.84769C17.4492 6.67431 17.4013 6.48254 17.3364 6.27236C17.2715 6.06217 17.2112 5.88445 17.1553 5.73919C17.1255 5.66169 17.095 5.59162 17.0633 5.5196C17.0359 5.45663 17.0077 5.39218 16.9789 5.31999L16.8863 5.13904C16.8613 5.0889 16.7332 4.90379 16.5015 4.61428C16.4704 4.5801 16.439 4.54535 16.4076 4.51029L16.3245 4.41709C16.1497 4.22092 15.9723 4.02168 15.792 3.86004C15.5633 3.64352 15.2973 3.42859 14.9941 3.21526C14.6909 3.00191 14.4929 2.89524 14.4004 2.89524C14.3963 2.89524 14.3931 2.89586 14.3903 2.89714C14.3881 2.89821 14.3864 2.89972 14.3849 2.9017C14.3829 2.90465 14.3818 2.90863 14.3818 2.91364C14.3447 2.92591 14.3014 2.96924 14.2519 3.04367C14.2025 3.11808 14.1421 3.22633 14.0707 3.36842C14.0319 3.44583 13.9956 3.51503 13.9614 3.57599C13.9329 3.62695 13.9061 3.67214 13.8809 3.7116C13.8723 3.72386 13.8617 3.73868 13.8492 3.75608L13.8284 3.78492C13.7774 3.85549 13.702 3.95791 13.6023 4.09218C13.4598 4.28416 13.3563 4.43715 13.2918 4.55114C13.2274 4.66514 13.2004 4.75698 13.2123 4.82545ZM3.28148 7.03074C3.23835 6.64085 3.21676 6.28203 3.21676 5.9543C3.21676 4.9897 3.26072 4.46404 3.34736 4.37737C3.72497 3.93839 4.28173 3.51783 5.01756 3.11569C5.47514 2.85601 5.87711 2.64881 6.2234 2.49405C6.56976 2.33928 6.78629 2.26189 6.87299 2.26189C6.97786 2.26189 7.40455 2.60211 8.15301 3.28252C8.17801 3.30072 8.26313 3.37178 8.40838 3.49566C8.55364 3.61957 8.66032 3.71239 8.72844 3.77413L8.98845 4.01044C9.09371 4.10622 9.16953 4.185 9.21589 4.24673C9.26215 4.30849 9.28533 4.35796 9.28533 4.39518C9.28533 4.45692 9.22339 4.59921 9.09941 4.82207C8.97562 5.04492 8.8069 5.32792 8.59363 5.6711C8.38026 6.01427 8.26427 6.2013 8.24573 6.23217C8.19625 6.30659 8.08795 6.49995 7.92093 6.81225C7.75392 7.12456 7.6022 7.39352 7.46613 7.61917C7.32995 7.8447 7.23099 7.97 7.16926 7.99499C7.0762 8.03214 6.85974 8.05075 6.51967 8.05075C6.03719 8.05075 5.62888 8.03214 5.29484 7.99499C5.18991 7.98264 4.96113 7.96724 4.60848 7.94862C4.25578 7.93 3.98209 7.90844 3.78732 7.88394C3.59261 7.85942 3.48276 7.82854 3.4578 7.7913C3.38342 7.67418 3.32461 7.42063 3.28148 7.03074Z"/>
</svg>
