<svg width="150" height="150" viewBox="0 0 150 150" fill="none" xmlns="http://www.w3.org/2000/svg">
<g clip-path="url(#clip0_16756_49687)">
<g clip-path="url(#clip1_16756_49687)">
<g filter="url(#filter0_d_16756_49687)">
<path d="M27.783 116.672L26.6201 114.465C26.4363 114.116 22.1872 105.815 26.7573 94.1018C27.8885 91.2014 29.7935 88.7029 32.2185 85.9372C30.2558 86.2187 28.6265 86.128 27.1421 86.0446C25.5171 85.954 24.2322 85.8852 22.7203 86.2903C21.9061 86.5085 21.075 86.8527 20.1862 87.3433C18.0731 88.5084 16.995 91.9022 16.7584 93.1113L16.404 94.9154L14.8261 95.3526L7.75494 97.2473L1.22311 72.8702L11.0062 70.2489L11.1631 70.8346C14.2894 68.5699 18.4397 66.039 22.6111 64.9005C24.9128 64.2838 27.99 64.2725 31.55 64.2577C35.5053 64.2414 40.0063 64.2909 43.4416 63.3024C48.3196 61.896 49.9987 57.1512 49.9987 57.1512L59.1524 62.2L57.621 65.3544C57.5269 65.5285 47.9512 83.6363 54.0663 106.237L54.9226 109.4L27.783 116.672Z" fill="black"/>
</g>
<path d="M51.2809 61.5025C51.2809 61.5025 49.6275 65.1944 44.3253 66.6098C37.5252 68.4238 27.8883 67.0617 23.5194 68.2508C18.0549 69.7411 12.4314 73.8948 9.62191 76.2433L9.07178 74.2564L5.01752 75.4053L9.7832 93.1911L13.8697 92.0961C13.8697 92.0961 15.0025 86.3049 18.7473 84.2395C27.2757 79.5364 29.6805 87.2319 44.3797 76.5775C37.7367 85.3869 31.7011 90.096 29.53 95.6629C25.4937 106.004 29.1051 112.851 29.1051 112.851C29.1051 112.851 47.0932 107.948 51.2225 106.841C44.6268 82.4634 55.048 63.5481 55.048 63.5481L51.2809 61.5025Z" fill="#B82929"/>
<path d="M51.2809 61.5025C51.2809 61.5025 49.6275 65.1944 44.3253 66.6098C37.5252 68.4238 27.8883 67.0617 23.5194 68.2508C18.0549 69.7411 12.4314 73.8948 9.62191 76.2433L9.07178 74.2564L5.01752 75.4053L9.7832 93.1911L13.8697 92.0961C13.8697 92.0961 15.0025 86.3049 18.7473 84.2395C27.2757 79.5364 29.6805 87.2319 44.3797 76.5775C37.7367 85.3869 31.7011 90.096 29.53 95.6629C25.4937 106.004 29.1051 112.851 29.1051 112.851C29.1051 112.851 47.0932 107.948 51.2225 106.841C44.6268 82.4634 55.048 63.5481 55.048 63.5481L51.2809 61.5025Z" fill="#B82929"/>
<path d="M51.2809 61.5025C51.2809 61.5025 49.6275 65.1944 44.3253 66.6098C37.5252 68.4238 27.8883 67.0617 23.5194 68.2508C18.0549 69.7411 12.4314 73.8948 9.62191 76.2433L9.07178 74.2564L5.01752 75.4053L9.7832 93.1911L13.8697 92.0961C13.8697 92.0961 15.0025 86.3049 18.7473 84.2395C27.2757 79.5364 29.6805 87.2319 44.3797 76.5775C37.7367 85.3869 31.7011 90.096 29.53 95.6629C25.4937 106.004 29.1051 112.851 29.1051 112.851C29.1051 112.851 47.0932 107.948 51.2225 106.841C44.6268 82.4634 55.048 63.5481 55.048 63.5481L51.2809 61.5025Z" fill="#B82929"/>
<path d="M51.2809 61.5025C51.2809 61.5025 49.6275 65.1944 44.3253 66.6098C37.5252 68.4238 27.8883 67.0617 23.5194 68.2508C18.0549 69.7411 12.4314 73.8948 9.62191 76.2433L9.07178 74.2564L5.01752 75.4053L9.7832 93.1911L13.8697 92.0961C13.8697 92.0961 15.0025 86.3049 18.7473 84.2395C27.2757 79.5364 29.6805 87.2319 44.3797 76.5775C37.7367 85.3869 31.7011 90.096 29.53 95.6629C25.4937 106.004 29.1051 112.851 29.1051 112.851C29.1051 112.851 47.0932 107.948 51.2225 106.841C44.6268 82.4634 55.048 63.5481 55.048 63.5481L51.2809 61.5025Z" fill="#B82929"/>
<mask id="mask0_16756_49687" style="mask-type:luminance" maskUnits="userSpaceOnUse" x="5" y="61" width="51" height="33">
<path d="M44.3264 66.6093C37.5263 68.4234 27.8894 67.0613 23.5205 68.2504C18.056 69.7407 12.4325 73.8944 9.623 76.2429L9.07288 74.2559L5.01861 75.4049L9.78429 93.1906L13.8708 92.0957C13.8708 92.0957 15.0035 86.3045 18.7484 84.2391C27.2768 79.536 29.6816 87.2314 44.3808 76.5771C39.6294 82.8776 35.199 87.0792 32.2604 90.9973C33.9606 90.6217 35.6706 90.2091 37.3916 89.7479C41.5066 88.6453 45.4491 87.3499 49.1959 85.9063C50.1477 72.4489 55.049 63.5477 55.049 63.5477L51.282 61.5021C51.282 61.5021 49.6286 65.194 44.3264 66.6093Z" fill="white"/>
</mask>
<g mask="url(#mask0_16756_49687)">
<path d="M44.3264 66.6093C37.5263 68.4234 27.8894 67.0613 23.5205 68.2504C18.056 69.7407 12.4325 73.8944 9.623 76.2429L9.07288 74.2559L5.01861 75.4049L9.78429 93.1906L13.8708 92.0957C13.8708 92.0957 15.0035 86.3045 18.7484 84.2391C27.2768 79.536 29.6816 87.2314 44.3808 76.5771C39.6294 82.8776 35.199 87.0792 32.2604 90.9973C33.9606 90.6217 35.6706 90.2091 37.3916 89.7479C41.5066 88.6453 45.4491 87.3499 49.1959 85.9063C50.1477 72.4489 55.049 63.5477 55.049 63.5477L51.282 61.5021C51.282 61.5021 49.6286 65.194 44.3264 66.6093Z" fill="url(#paint0_linear_16756_49687)"/>
</g>
<path d="M6.16807 76.2693L8.42464 75.6646L9.14015 74.1337L4.78297 75.3012L9.62256 93.3628L10.3381 91.8319L6.16807 76.2693Z" fill="white"/>
<path d="M29.5788 111.467C28.8161 109.384 27.4122 103.816 30.3807 96.2109C31.5885 93.1121 34.2099 90.2255 37.5288 86.5704C39.8596 84.0024 44.0063 77.5529 44.3801 76.5776C44.1335 76.9041 43.8877 77.2261 43.6421 77.5404C37.2827 85.7338 31.4589 90.2408 29.3684 95.6006C25.3326 105.942 29.0274 112.954 29.0274 112.954L29.5788 111.467Z" fill="white"/>
<path d="M51.2375 61.3243C51.2375 61.3243 49.5867 65.0426 44.2849 66.4592C37.4852 68.2748 27.8358 66.8662 23.467 68.0552C18.0025 69.5456 12.4653 73.718 9.6579 76.0659L9.09766 78.1763C9.09766 78.1763 17.3591 70.2292 23.6055 68.5555C28.8938 67.1385 40.7479 68.7424 44.6197 67.7087C48.6754 66.6219 50.7755 64.261 51.6758 62.9357L51.2375 61.3243Z" fill="white"/>
<path d="M9.65808 76.0661L9.14015 74.1331L8.42464 75.664L9.09784 78.1764L9.65808 76.0661Z" fill="black" fill-opacity="0.3"/>
<path d="M51.2376 61.3243L51.6758 62.9357L53.6032 63.9992C51.437 68.6089 44.7881 85.1986 49.9791 106L29.5783 111.467L29.0269 112.953C29.0269 112.953 47.2247 108.077 51.356 106.97C44.7582 82.5926 55.1746 63.4958 55.1746 63.4958L51.2376 61.3243Z" fill="black" fill-opacity="0.3"/>
<path d="M51.2376 61.3243L51.6758 62.9357L53.6032 63.9992C51.437 68.6089 44.7881 85.1986 49.9791 106L29.5783 111.467L29.0269 112.953C29.0269 112.953 47.2247 108.077 51.356 106.97C44.7582 82.5926 55.1746 63.4958 55.1746 63.4958L51.2376 61.3243Z" fill="black" fill-opacity="0.3"/>
<path d="M44.3802 76.5777C43.9089 76.5329 39.0367 80.1361 33.4139 81.6428C28.8948 82.8537 24.7599 81.1329 19.9535 82.4208C14.4866 83.8856 13.5077 89.3815 13.067 91.1006L10.3385 91.8316L9.62303 93.3626L13.9802 92.1951C13.9802 92.1951 15.0498 86.4717 18.7947 84.4066C27.3228 79.7032 29.2219 87.6688 44.3802 76.5777Z" fill="black" fill-opacity="0.3"/>
<path d="M44.3802 76.5777C43.9089 76.5329 39.0367 80.1361 33.4139 81.6428C28.8948 82.8537 24.7599 81.1329 19.9535 82.4208C14.4866 83.8856 13.5077 89.3815 13.067 91.1006L10.3385 91.8316L9.62303 93.3626L13.9802 92.1951C13.9802 92.1951 15.0498 86.4717 18.7947 84.4066C27.3228 79.7032 29.2219 87.6688 44.3802 76.5777Z" fill="black" fill-opacity="0.3"/>
</g>
<g clip-path="url(#clip2_16756_49687)">
<g filter="url(#filter1_d_16756_49687)">
<path d="M93.7957 109.472L93.8636 107.085C93.8743 106.708 94.2382 97.7933 103.934 90.377C106.334 88.5403 109.211 87.413 112.67 86.3196C110.827 85.5923 109.455 84.7213 108.206 83.9273C106.838 83.0585 105.755 82.3739 104.243 81.9688C103.429 81.7506 102.538 81.628 101.526 81.5979C99.1204 81.5251 96.525 83.7941 95.7285 84.6746L94.5388 85.9877L92.9539 85.5767L85.8828 83.682L92.1192 60.4073L101.902 63.0287L101.752 63.5879C105.576 63.2501 110.42 63.1932 114.601 64.2938C116.903 64.9106 119.583 66.4051 122.684 68.1326C126.129 70.0522 130.017 72.2925 133.485 73.157C138.412 74.3821 142.19 71.2939 142.19 71.2939L147.677 79.9266L144.805 81.7768C144.638 81.8744 127.467 92.1125 121.737 113.72L120.935 116.744L93.7957 109.472Z" fill="black"/>
</g>
<path d="M141.178 75.5057C141.178 75.5057 137.937 77.7392 132.638 76.3141C125.841 74.4854 118.132 68.6538 113.754 67.4984C108.277 66.0557 101.36 66.7295 97.7707 67.2912L98.2636 65.3855L94.1787 64.3507L89.6285 81.3321L93.715 82.4271C93.715 82.4271 97.5296 78.2097 101.793 78.3382C111.503 78.6315 109.833 86.1464 127.814 84.5525C117.736 88.5635 110.189 89.4935 105.582 93.0186C97.0202 99.5654 96.8124 106.971 96.8124 106.971C96.8124 106.971 114.841 111.722 118.971 112.829C125.152 89.5221 143.452 79.032 143.452 79.032L141.178 75.5057Z" fill="#B82929"/>
<path d="M141.178 75.5057C141.178 75.5057 137.937 77.7392 132.638 76.3141C125.841 74.4854 118.132 68.6538 113.754 67.4984C108.277 66.0557 101.36 66.7295 97.7707 67.2912L98.2636 65.3855L94.1787 64.3507L89.6285 81.3321L93.715 82.4271C93.715 82.4271 97.5296 78.2097 101.793 78.3382C111.503 78.6315 109.833 86.1464 127.814 84.5525C117.736 88.5635 110.189 89.4935 105.582 93.0186C97.0202 99.5654 96.8124 106.971 96.8124 106.971C96.8124 106.971 114.841 111.722 118.971 112.829C125.152 89.5221 143.452 79.032 143.452 79.032L141.178 75.5057Z" fill="#B82929"/>
<path d="M141.178 75.5057C141.178 75.5057 137.937 77.7392 132.638 76.3141C125.841 74.4854 118.132 68.6538 113.754 67.4984C108.277 66.0557 101.36 66.7295 97.7707 67.2912L98.2636 65.3855L94.1787 64.3507L89.6285 81.3321L93.715 82.4271C93.715 82.4271 97.5296 78.2097 101.793 78.3382C111.503 78.6315 109.833 86.1464 127.814 84.5525C117.736 88.5635 110.189 89.4935 105.582 93.0186C97.0202 99.5654 96.8124 106.971 96.8124 106.971C96.8124 106.971 114.841 111.722 118.971 112.829C125.152 89.5221 143.452 79.032 143.452 79.032L141.178 75.5057Z" fill="#B82929"/>
<path d="M141.178 75.5057C141.178 75.5057 137.937 77.7392 132.638 76.3141C125.841 74.4854 118.132 68.6538 113.754 67.4984C108.277 66.0557 101.36 66.7295 97.7707 67.2912L98.2636 65.3855L94.1787 64.3507L89.6285 81.3321L93.715 82.4271C93.715 82.4271 97.5296 78.2097 101.793 78.3382C111.503 78.6315 109.833 86.1464 127.814 84.5525C117.736 88.5635 110.189 89.4935 105.582 93.0186C97.0202 99.5654 96.8124 106.971 96.8124 106.971C96.8124 106.971 114.841 111.722 118.971 112.829C125.152 89.5221 143.452 79.032 143.452 79.032L141.178 75.5057Z" fill="#B82929"/>
<mask id="mask1_16756_49687" style="mask-type:luminance" maskUnits="userSpaceOnUse" x="89" y="64" width="55" height="31">
<path d="M132.637 76.3131C125.841 74.4844 118.132 68.6528 113.754 67.4974C108.276 66.0547 101.359 66.7285 97.7701 67.2902L98.2631 65.3845L94.1782 64.3497L89.628 81.3311L93.7145 82.4261C93.7145 82.4261 97.5291 78.2087 101.793 78.3373C111.503 78.6305 109.832 86.1454 127.813 84.5515C120.605 87.42 114.701 88.7163 110.233 90.5081C111.894 91.0296 113.582 91.5253 115.303 91.9864C119.418 93.0891 123.477 93.9485 127.439 94.5903C134.842 83.9688 143.452 79.031 143.452 79.031L141.178 75.5048C141.178 75.5048 137.937 77.7383 132.637 76.3131Z" fill="white"/>
</mask>
<g mask="url(#mask1_16756_49687)">
<path d="M132.637 76.3131C125.841 74.4844 118.132 68.6528 113.754 67.4974C108.276 66.0547 101.359 66.7285 97.7701 67.2902L98.2631 65.3845L94.1782 64.3497L89.628 81.3311L93.7145 82.4261C93.7145 82.4261 97.5291 78.2087 101.793 78.3373C111.503 78.6305 109.832 86.1454 127.813 84.5515C120.605 87.42 114.701 88.7163 110.233 90.5081C111.894 91.0296 113.582 91.5253 115.303 91.9864C119.418 93.0891 123.477 93.9485 127.439 94.5903C134.842 83.9688 143.452 79.031 143.452 79.031L141.178 75.5048C141.178 75.5048 137.937 77.7383 132.637 76.3131Z" fill="url(#paint1_linear_16756_49687)"/>
</g>
<path d="M94.7562 65.6237L97.0127 66.2283L98.3827 65.3168L94.0255 64.1493L89.4048 81.394L90.7747 80.4825L94.7562 65.6237Z" fill="white"/>
<path d="M97.9002 106.062C98.2553 103.973 99.7563 98.7001 106.053 93.8854C108.617 91.9227 112.306 90.8257 116.976 89.4365C120.257 88.4599 127.012 85.1731 127.814 84.5523C127.44 84.7008 127.069 84.8459 126.702 84.9848C117.171 88.6269 109.907 89.4939 105.471 92.8879C96.9099 99.4356 96.6944 107.017 96.6944 107.017L97.9002 106.062Z" fill="white"/>
<path d="M141.227 75.3372C141.227 75.3372 137.975 77.5938 132.675 76.1698C125.879 74.3426 118.181 68.4666 113.803 67.3111C108.326 65.8684 101.475 66.5998 97.8878 67.1622L96.3696 68.627C96.3696 68.627 107.433 66.1172 113.679 67.791C118.968 69.2079 128.486 76.3223 132.356 77.3628C136.411 78.4496 139.39 77.5309 140.82 76.879L141.227 75.3372Z" fill="white"/>
<path d="M97.8878 67.1626L98.3823 65.3171L97.0124 66.2286L96.3696 68.6274L97.8878 67.1626Z" fill="black" fill-opacity="0.3"/>
<path d="M141.227 75.3378L140.82 76.8796L141.975 78.6976C137.84 81.4366 123.955 91.8545 118.3 111.528L97.8995 106.062L96.6936 107.017C96.6936 107.017 114.891 111.893 119.023 113C125.202 89.6929 143.587 79.0508 143.587 79.0508L141.227 75.3378Z" fill="black" fill-opacity="0.3"/>
<path d="M141.227 75.3378L140.82 76.8796L141.975 78.6976C137.84 81.4366 123.955 91.8545 118.3 111.528L97.8995 106.062L96.6936 107.017C96.6936 107.017 114.891 111.893 119.023 113C125.202 89.6929 143.587 79.0508 143.587 79.0508L141.227 75.3378Z" fill="black" fill-opacity="0.3"/>
<path d="M127.813 84.5519C127.425 84.2847 121.43 84.8721 115.807 83.3655C111.288 82.1546 108.536 78.7162 103.729 77.4284C98.2625 75.9635 94.726 80.0128 93.5028 81.2137L90.7744 80.4826L89.4044 81.3941L93.7616 82.5616C93.7616 82.5616 97.4882 78.3692 101.752 78.4981C111.462 78.7909 109.219 86.2813 127.813 84.5519Z" fill="black" fill-opacity="0.3"/>
<path d="M127.813 84.5519C127.425 84.2847 121.43 84.8721 115.807 83.3655C111.288 82.1546 108.536 78.7162 103.729 77.4284C98.2625 75.9635 94.726 80.0128 93.5028 81.2137L90.7744 80.4826L89.4044 81.3941L93.7616 82.5616C93.7616 82.5616 97.4882 78.3692 101.752 78.4981C111.462 78.7909 109.219 86.2813 127.813 84.5519Z" fill="black" fill-opacity="0.3"/>
</g>
<g filter="url(#filter2_d_16756_49687)">
<path d="M55.7883 104.633L55.0475 101.47C54.9304 100.97 52.306 89.1163 62.2969 75.945C64.7702 72.6833 68.107 70.1867 72.2104 67.5296C69.5689 67.2227 67.4887 66.5605 65.5938 65.9563C63.5191 65.2958 61.8778 64.777 59.7775 64.777C58.6464 64.777 57.4497 64.9296 56.1275 65.2466C52.9841 65.9988 50.4082 69.8979 49.6816 71.3366L48.5958 73.4829L46.3989 73.501H36.5762V40.6908H50.166V41.4791C55.0044 39.6873 61.2624 37.9055 67.0641 37.8794C70.2615 37.8794 74.2537 38.9006 78.8729 40.0799C84.0049 41.3904 89.8212 42.967 94.617 42.8817C101.428 42.7568 105.252 37.3635 105.252 37.3635L115.362 46.7837L112.282 50.2296C112.099 50.4167 93.4002 69.934 93.4771 100.373L93.4884 104.633H55.7883Z" fill="black"/>
</g>
<path d="M105.402 43.2596C105.402 43.2596 101.977 47.3395 94.6134 47.3327C85.17 47.3227 73.153 42.3695 67.0777 42.3927C59.4778 42.4255 50.7468 45.7494 46.2899 47.7532L46.2669 45.0729L40.6133 45.1515V69.0902H46.2899C46.2899 69.0902 49.7692 62.1989 55.3401 60.8652C68.0268 57.8289 68.471 68.3019 91.2223 59.8684C79.5532 68.6958 70.0953 72.5785 65.3481 78.8388C56.5255 90.4667 58.8281 100.281 58.8281 100.281C58.8281 100.281 83.8449 100.176 89.5809 100.176C89.4985 67.3429 109.574 47.0961 109.574 47.0961L105.402 43.2596Z" fill="#B82929"/>
<path d="M105.402 43.2596C105.402 43.2596 101.977 47.3395 94.6134 47.3327C85.17 47.3227 73.153 42.3695 67.0777 42.3927C59.4778 42.4255 50.7468 45.7494 46.2899 47.7532L46.2669 45.0729L40.6133 45.1515V69.0902H46.2899C46.2899 69.0902 49.7692 62.1989 55.3401 60.8652C68.0268 57.8289 68.471 68.3019 91.2223 59.8684C79.5532 68.6958 70.0953 72.5785 65.3481 78.8388C56.5255 90.4667 58.8281 100.281 58.8281 100.281C58.8281 100.281 83.8449 100.176 89.5809 100.176C89.4985 67.3429 109.574 47.0961 109.574 47.0961L105.402 43.2596Z" fill="#B82929"/>
<path d="M105.402 43.2596C105.402 43.2596 101.977 47.3395 94.6134 47.3327C85.17 47.3227 73.153 42.3695 67.0777 42.3927C59.4778 42.4255 50.7468 45.7494 46.2899 47.7532L46.2669 45.0729L40.6133 45.1515V69.0902H46.2899C46.2899 69.0902 49.7692 62.1989 55.3401 60.8652C68.0268 57.8289 68.471 68.3019 91.2223 59.8684C79.5532 68.6958 70.0953 72.5785 65.3481 78.8388C56.5255 90.4667 58.8281 100.281 58.8281 100.281C58.8281 100.281 83.8449 100.176 89.5809 100.176C89.4985 67.3429 109.574 47.0961 109.574 47.0961L105.402 43.2596Z" fill="#B82929"/>
<path d="M105.402 43.2596C105.402 43.2596 101.977 47.3395 94.6134 47.3327C85.17 47.3227 73.153 42.3695 67.0777 42.3927C59.4778 42.4255 50.7468 45.7494 46.2899 47.7532L46.2669 45.0729L40.6133 45.1515V69.0902H46.2899C46.2899 69.0902 49.7692 62.1989 55.3401 60.8652C68.0268 57.8289 68.471 68.3019 91.2223 59.8684C79.5532 68.6958 70.0953 72.5785 65.3481 78.8388C56.5255 90.4667 58.8281 100.281 58.8281 100.281C58.8281 100.281 83.8449 100.176 89.5809 100.176C89.4985 67.3429 109.574 47.0961 109.574 47.0961L105.402 43.2596Z" fill="#B82929"/>
<mask id="mask2_16756_49687" style="mask-type:luminance" maskUnits="userSpaceOnUse" x="40" y="42" width="70" height="33">
<path d="M94.6134 47.3321C85.17 47.322 73.153 42.3689 67.0777 42.392C59.4778 42.4248 50.7468 45.7487 46.2899 47.7525L46.2669 45.0723L40.6133 45.1509V69.0895H46.2899C46.2899 69.0895 49.7692 62.1982 55.3401 60.8646C68.0268 57.8282 68.471 68.3012 91.2223 59.8677C82.8761 66.181 75.6748 69.9665 70.5056 73.898C72.8396 73.9985 75.1992 74.0557 77.5898 74.0557C83.3061 74.0557 88.8657 73.7555 94.2231 73.2034C100.13 56.6241 109.574 47.0954 109.574 47.0954L105.402 43.2589C105.402 43.2589 101.977 47.3388 94.6134 47.3321Z" fill="white"/>
</mask>
<g mask="url(#mask2_16756_49687)">
<path d="M94.6134 47.3321C85.17 47.322 73.153 42.3689 67.0777 42.392C59.4778 42.4248 50.7468 45.7487 46.2899 47.7525L46.2669 45.0723L40.6133 45.1509V69.0895H46.2899C46.2899 69.0895 49.7692 62.1982 55.3401 60.8646C68.0268 57.8282 68.471 68.3012 91.2223 59.8677C82.8761 66.181 75.6748 69.9665 70.5056 73.898C72.8396 73.9985 75.1992 74.0557 77.5898 74.0557C83.3061 74.0557 88.8657 73.7555 94.2231 73.2034C100.13 56.6241 109.574 47.0954 109.574 47.0954L105.402 43.2589C105.402 43.2589 101.977 47.3388 94.6134 47.3321Z" fill="url(#paint2_linear_16756_49687)"/>
</g>
<path d="M41.8042 46.6224H44.9389L46.3979 44.9406H40.3452V69.2505L41.8042 67.5688V46.6224Z" fill="white"/>
<path d="M59.9222 98.7011C59.6571 95.8287 59.7712 88.3643 66.2598 79.8127C68.9013 76.3277 73.3012 73.5848 78.8721 70.1116C82.7847 67.671 90.3989 60.9672 91.2221 59.8682C90.7892 60.1953 90.3588 60.5169 89.9313 60.8289C78.8436 68.9781 69.7303 72.6784 65.1597 78.7057C56.3375 90.3349 58.6912 100.383 58.6912 100.383L59.9222 98.7011Z" fill="white"/>
<path d="M105.408 43.0209C105.408 43.0209 101.977 47.1349 94.6136 47.1298C85.1703 47.1218 73.1532 42.1061 67.0779 42.1292C59.478 42.162 50.8524 45.5385 46.3985 47.5423L44.9395 50.0039C44.9395 50.0039 58.4068 42.804 67.0838 42.804C74.4298 42.804 89.2365 48.8069 94.6136 48.8115C100.248 48.8115 103.789 46.5534 105.416 45.192L105.408 43.0209Z" fill="white"/>
<path d="M46.3985 47.543V44.9414L44.9395 46.6231V50.0047L46.3985 47.543Z" fill="black" fill-opacity="0.3"/>
<path d="M105.408 43.0215L105.416 45.1926L107.545 47.1766C103.137 52.2365 88.7577 70.8323 88.2617 98.7011H59.9224L58.6914 100.383C58.6914 100.383 83.9704 100.383 89.7094 100.383C89.624 67.5496 109.756 47.0732 109.756 47.0732L105.408 43.0215Z" fill="black" fill-opacity="0.3"/>
<path d="M105.408 43.0215L105.416 45.1926L107.545 47.1766C103.137 52.2365 88.7577 70.8323 88.2617 98.7011H59.9224L58.6914 100.383C58.6914 100.383 83.9704 100.383 89.7094 100.383C89.624 67.5496 109.756 47.0732 109.756 47.0732L105.408 43.0215Z" fill="black" fill-opacity="0.3"/>
<path d="M91.222 59.8685C90.6267 59.6536 83.0607 62.5391 75.25 62.5391C68.9722 62.5391 64.2108 58.9868 57.5341 58.9868C49.94 58.9868 46.7626 65.559 45.5943 67.5695H41.8042L40.3452 69.2513H46.3979C46.3979 69.2513 49.7718 62.4239 55.3426 61.0907C68.029 58.0539 67.7241 68.6959 91.222 59.8685Z" fill="black" fill-opacity="0.3"/>
<path d="M91.222 59.8685C90.6267 59.6536 83.0607 62.5391 75.25 62.5391C68.9722 62.5391 64.2108 58.9868 57.5341 58.9868C49.94 58.9868 46.7626 65.559 45.5943 67.5695H41.8042L40.3452 69.2513H46.3979C46.3979 69.2513 49.7718 62.4239 55.3426 61.0907C68.029 58.0539 67.7241 68.6959 91.222 59.8685Z" fill="black" fill-opacity="0.3"/>
</g>
<defs>
<filter id="filter0_d_16756_49687" x="-1.49134" y="57.1514" width="63.3582" height="64.949" filterUnits="userSpaceOnUse" color-interpolation-filters="sRGB">
<feFlood flood-opacity="0" result="BackgroundImageFix"/>
<feColorMatrix in="SourceAlpha" type="matrix" values="0 0 0 0 0 0 0 0 0 0 0 0 0 0 0 0 0 0 127 0" result="hardAlpha"/>
<feOffset dy="2.71448"/>
<feGaussianBlur stdDeviation="1.35724"/>
<feComposite in2="hardAlpha" operator="out"/>
<feColorMatrix type="matrix" values="0 0 0 0 0 0 0 0 0 0 0 0 0 0 0 0 0 0 0.25 0"/>
<feBlend mode="normal" in2="BackgroundImageFix" result="effect1_dropShadow_16756_49687"/>
<feBlend mode="normal" in="SourceGraphic" in2="effect1_dropShadow_16756_49687" result="shape"/>
</filter>
<filter id="filter1_d_16756_49687" x="83.1683" y="60.4072" width="67.2234" height="61.7659" filterUnits="userSpaceOnUse" color-interpolation-filters="sRGB">
<feFlood flood-opacity="0" result="BackgroundImageFix"/>
<feColorMatrix in="SourceAlpha" type="matrix" values="0 0 0 0 0 0 0 0 0 0 0 0 0 0 0 0 0 0 127 0" result="hardAlpha"/>
<feOffset dy="2.71448"/>
<feGaussianBlur stdDeviation="1.35724"/>
<feComposite in2="hardAlpha" operator="out"/>
<feColorMatrix type="matrix" values="0 0 0 0 0 0 0 0 0 0 0 0 0 0 0 0 0 0 0.25 0"/>
<feBlend mode="normal" in2="BackgroundImageFix" result="effect1_dropShadow_16756_49687"/>
<feBlend mode="normal" in="SourceGraphic" in2="effect1_dropShadow_16756_49687" result="shape"/>
</filter>
<filter id="filter2_d_16756_49687" x="32.9339" y="37.3633" width="86.0707" height="74.5541" filterUnits="userSpaceOnUse" color-interpolation-filters="sRGB">
<feFlood flood-opacity="0" result="BackgroundImageFix"/>
<feColorMatrix in="SourceAlpha" type="matrix" values="0 0 0 0 0 0 0 0 0 0 0 0 0 0 0 0 0 0 127 0" result="hardAlpha"/>
<feOffset dy="3.64227"/>
<feGaussianBlur stdDeviation="1.82113"/>
<feComposite in2="hardAlpha" operator="out"/>
<feColorMatrix type="matrix" values="0 0 0 0 0 0 0 0 0 0 0 0 0 0 0 0 0 0 0.25 0"/>
<feBlend mode="normal" in2="BackgroundImageFix" result="effect1_dropShadow_16756_49687"/>
<feBlend mode="normal" in="SourceGraphic" in2="effect1_dropShadow_16756_49687" result="shape"/>
</filter>
<linearGradient id="paint0_linear_16756_49687" x1="29.291" y1="66.7041" x2="35.5946" y2="90.2294" gradientUnits="userSpaceOnUse">
<stop stop-opacity="0.3"/>
<stop offset="1" stop-color="white" stop-opacity="0.3"/>
</linearGradient>
<linearGradient id="paint1_linear_16756_49687" x1="119.524" y1="69.0435" x2="113.506" y2="91.5049" gradientUnits="userSpaceOnUse">
<stop stop-opacity="0.3"/>
<stop offset="1" stop-color="white" stop-opacity="0.3"/>
</linearGradient>
<linearGradient id="paint2_linear_16756_49687" x1="75.0936" y1="42.3919" x2="75.0936" y2="74.0557" gradientUnits="userSpaceOnUse">
<stop stop-opacity="0.3"/>
<stop offset="1" stop-color="white" stop-opacity="0.3"/>
</linearGradient>
<clipPath id="clip0_16756_49687">
<rect width="150" height="150" fill="white"/>
</clipPath>
<clipPath id="clip1_16756_49687">
<rect width="78.7203" height="61.0761" fill="white" transform="translate(-9.20117 72.6074) rotate(-15)"/>
</clipPath>
<clipPath id="clip2_16756_49687">
<rect width="78.7203" height="61.0761" fill="white" transform="translate(83.7974 52.8188) rotate(15)"/>
</clipPath>
</defs>
</svg>
