<svg width="24" height="24" viewBox="0 0 24 24" fill="none" xmlns="http://www.w3.org/2000/svg">
<path d="M22.4522 1.62452L13.4021 0.0287451C12.3843 -0.150739 11.4136 0.528948 11.2341 1.54684L11.1484 2.03261C12.4572 2.19385 13.563 3.1367 13.9112 4.43584L14.4642 6.49998C14.757 6.373 15.089 6.32725 15.4269 6.38682C16.068 6.49989 16.5598 6.96128 16.743 7.54192C17.1138 7.05896 17.7338 6.7936 18.375 6.90666C19.2925 7.06848 19.9053 7.94349 19.7434 8.86108C19.3918 10.8549 17.2524 12.4574 16.237 13.1165L17.7872 18.9019C17.8704 19.212 17.9049 19.5237 17.8973 19.8296L19.2016 20.0596C20.2194 20.2391 21.1901 19.5593 21.3697 18.5415L23.9702 3.79266C24.1498 2.77468 23.4701 1.804 22.4522 1.62452Z" fill="#8C8C8C"/>
<path d="M12.5563 4.79873C12.3322 3.96257 11.5761 3.41108 10.7497 3.41113C10.5894 3.41113 10.4264 3.43189 10.2641 3.47535L1.38761 5.85379C0.389217 6.12131 -0.203283 7.14755 0.0642332 8.14593L3.94037 22.612C4.16444 23.4481 4.92057 23.9996 5.74693 23.9996C5.90725 23.9996 6.07028 23.9788 6.23247 23.9353L15.1089 21.5569C16.1073 21.2893 16.6999 20.2632 16.4324 19.2648L12.5563 4.79873ZM5.64892 14.687C5.4984 14.5546 5.4422 14.3448 5.50632 14.1549L6.86364 10.1359C6.97717 9.79973 7.39632 9.68741 7.66276 9.92179L10.8477 12.7237C10.9983 12.8561 11.0545 13.066 10.9903 13.2559L9.63301 17.2748C9.51948 17.611 9.10032 17.7234 8.83389 17.4889L5.64892 14.687Z" fill="#8C8C8C"/>
</svg>
