<svg width="150" height="150" viewBox="0 0 150 150" fill="none" xmlns="http://www.w3.org/2000/svg">
<g clip-path="url(#clip0_16756_49684)">
<g filter="url(#filter0_d_16756_49684)">
<rect x="67.4394" y="21.4253" width="72.9737" height="107.837" rx="8.11905" transform="rotate(0.0947385 67.4394 21.4253)" fill="#00143C" stroke="black" stroke-width="3.24762"/>
<rect x="71.4381" y="25.4372" width="64.9631" height="99.8261" rx="4.11374" transform="rotate(0.0947385 71.4381 25.4372)" fill="#202120" stroke="white" stroke-width="4.76299"/>
<rect x="40.355" y="21.2431" width="72.9737" height="107.837" rx="8.11905" transform="rotate(0.0947385 40.355 21.2431)" fill="#00143C" stroke="black" stroke-width="3.24762"/>
<rect x="44.3536" y="25.2551" width="64.9631" height="99.8261" rx="4.11374" transform="rotate(0.0947385 44.3536 25.2551)" fill="#202120" stroke="white" stroke-width="4.76299"/>
<rect x="13.8205" y="20.8957" width="73.2087" height="108.209" rx="6.41737" fill="white" stroke="black" stroke-width="3.20868"/>
<path d="M33.8497 33.4092C33.8496 33.4091 33.8497 33.4092 33.8497 33.4092C31.0645 30.624 26.5488 30.624 23.7637 33.4092C20.9785 36.1944 20.9785 40.71 23.7637 43.4952C23.7636 43.4951 23.7637 43.4952 23.7637 43.4952L33.8498 53.5813L43.9358 43.4953C46.721 40.7102 46.7211 36.1944 43.936 33.4092C41.1508 30.624 36.6348 30.624 33.8497 33.4092Z" fill="#B82929"/>
</g>
<path d="M40.4283 113.083H28.9521L43.8581 68.9043H58.0739L72.9799 113.083H61.5037L51.1278 80.0353H50.7826L40.4283 113.083ZM38.8967 95.6963H62.8843V103.807H38.8967V95.6963Z" fill="#B82929"/>
</g>
<defs>
<filter id="filter0_d_16756_49684" x="7.044" y="19.2915" width="140.152" height="122.27" filterUnits="userSpaceOnUse" color-interpolation-filters="sRGB">
<feFlood flood-opacity="0" result="BackgroundImageFix"/>
<feColorMatrix in="SourceAlpha" type="matrix" values="0 0 0 0 0 0 0 0 0 0 0 0 0 0 0 0 0 0 127 0" result="hardAlpha"/>
<feOffset dy="5.39558"/>
<feGaussianBlur stdDeviation="2.58616"/>
<feComposite in2="hardAlpha" operator="out"/>
<feColorMatrix type="matrix" values="0 0 0 0 0 0 0 0 0 0 0 0 0 0 0 0 0 0 0.25 0"/>
<feBlend mode="normal" in2="BackgroundImageFix" result="effect1_dropShadow_16756_49684"/>
<feBlend mode="normal" in="SourceGraphic" in2="effect1_dropShadow_16756_49684" result="shape"/>
</filter>
<clipPath id="clip0_16756_49684">
<rect width="150" height="150" fill="white"/>
</clipPath>
</defs>
</svg>
