<svg width="15" height="13" viewBox="0 0 15 13" fill="none" xmlns="http://www.w3.org/2000/svg">
<path fill-rule="evenodd" clip-rule="evenodd" d="M12.6838 12.0714V12.07L12.6974 12.0381L14.9582 0.833787V0.798218C14.9582 0.518851 14.8526 0.275054 14.625 0.129072C14.4252 0.000874151 14.1953 -0.00801809 14.034 0.00383832C13.8838 0.0171887 13.7356 0.0470152 13.5922 0.0927613C13.531 0.112143 13.4707 0.133897 13.4113 0.157972L13.4015 0.161677L0.797364 5.02206L0.793595 5.02355C0.755275 5.03641 0.717769 5.0515 0.681274 5.06875C0.591634 5.10834 0.505631 5.15544 0.424216 5.20954C0.262142 5.31922 -0.0461767 5.57709 0.00583792 5.98614C0.0488065 6.32553 0.286265 6.54043 0.446831 6.65232C0.541607 6.71761 0.643504 6.77229 0.750627 6.81535L0.774749 6.82572L0.782288 6.82794L0.787565 6.83017L2.99329 7.56008C2.98575 7.69568 2.99932 7.83426 3.03625 7.97135L4.14062 12.0907C4.20095 12.3153 4.33132 12.5156 4.51341 12.6636C4.6955 12.8115 4.92017 12.8997 5.15587 12.9158C5.39156 12.9318 5.62645 12.8748 5.82753 12.7529C6.02861 12.631 6.18579 12.4502 6.27699 12.2359L8.00176 10.4234L10.9636 12.6554L11.0058 12.6732C11.2749 12.7888 11.5259 12.8251 11.7559 12.7947C11.9858 12.7636 12.1682 12.6687 12.3054 12.5613C12.4641 12.4348 12.5906 12.2737 12.6748 12.0907L12.6808 12.0781L12.6831 12.0737L12.6838 12.0714ZM4.12931 7.68827C4.11708 7.64257 4.11999 7.59422 4.13761 7.55024C4.15524 7.50627 4.18666 7.46896 4.22731 7.44374L11.7061 2.77527C11.7061 2.77527 12.1463 2.51221 12.1305 2.77527C12.1305 2.77527 12.2089 2.82122 11.973 3.03686C11.7498 3.24212 6.6426 8.08917 6.12547 8.57973C6.09671 8.60717 6.07657 8.64215 6.06742 8.68051L5.23368 11.8076L4.12931 7.68827Z" fill="#040C01"/>
</svg>
