<svg width="25" height="24" viewBox="0 0 25 24" fill="none" xmlns="http://www.w3.org/2000/svg">
<g clip-path="url(#clip0_6400_4816)">
<g clip-path="url(#clip1_6400_4816)">
<mask id="mask0_6400_4816" style="mask-type:luminance" maskUnits="userSpaceOnUse" x="0" y="0" width="25" height="24">
<path d="M24.5 0H0.5V24H24.5V0Z" fill="white"/>
</mask>
<g mask="url(#mask0_6400_4816)">
<path d="M12.5 24C19.1275 24 24.5 18.6275 24.5 12C24.5 5.37258 19.1275 0 12.5 0C5.87258 0 0.5 5.37258 0.5 12C0.5 18.6275 5.87258 24 12.5 24Z" fill="#8CC63E"/>
<path d="M12.9128 4.15653H9.03975C7.389 4.15653 5.74725 3.90003 4.1475 3.39453C3.77102 3.75972 3.41901 4.14932 3.09375 4.56078C5.00189 5.24378 7.01305 5.59437 9.03975 5.59728H12.9128C17.289 5.59728 19.2825 8.91678 19.2825 12.0008C19.2825 13.6913 18.717 15.261 17.691 16.4205C16.5435 17.718 14.8913 18.4035 12.9128 18.4035H9.03975C7.02675 18.4035 5.028 18.7523 3.09375 19.44C3.41925 19.851 3.771 20.2403 4.14675 20.6055C5.72907 20.1023 7.37934 19.8453 9.03975 19.8435H12.9128C15.315 19.8435 17.3407 18.99 18.7695 17.3745C20.0287 15.951 20.7225 14.0423 20.7225 12C20.7225 9.95778 20.0287 8.04978 18.7695 6.62553C17.34 5.01003 15.315 4.15653 12.9128 4.15653Z" fill="#E9EFF4"/>
<g opacity="0.1">
<path d="M14.9375 4.14C14.9375 9.7845 10.361 14.3595 4.71725 14.3595C3.2495 14.3595 1.85375 14.0498 0.593001 13.4933C0.530864 12.9979 0.499804 12.4992 0.500001 12C0.500001 5.37225 5.87225 0 12.5 0C13.046 0 13.5838 0.03675 14.1103 0.10725C14.6578 1.38112 14.9393 2.75343 14.9375 4.14Z" fill="white"/>
</g>
<g opacity="0.1">
<path d="M8.97802 7.34376C10.5157 5.73828 10.9715 3.67938 9.99601 2.74506C9.02053 1.81074 6.98317 2.35482 5.44546 3.9603C3.90775 5.56577 3.45198 7.62468 4.42747 8.55899C5.40295 9.49331 7.44031 8.94923 8.97802 7.34376Z" fill="white"/>
</g>
<g opacity="0.2">
<path opacity="0.2" d="M24.4975 11.9995C24.4975 18.6265 19.1245 23.9995 12.4975 23.9995C8.32525 23.9995 4.65025 21.8702 2.5 18.6392C4.46647 19.9487 6.77714 20.6456 9.13975 20.6417C15.7667 20.6417 21.1397 15.2687 21.1397 8.6417C21.1397 6.1862 20.4025 3.9032 19.1372 2.00195C22.3682 4.1522 24.4975 7.8272 24.4975 11.9995Z" fill="#64892F"/>
</g>
</g>
</g>
</g>
<defs>
<clipPath id="clip0_6400_4816">
<rect width="25" height="24" fill="white"/>
</clipPath>
<clipPath id="clip1_6400_4816">
<rect width="24" height="24" fill="white" transform="translate(0.5)"/>
</clipPath>
</defs>
</svg>
