<svg width="150" height="198" viewBox="0 0 150 198" fill="none" xmlns="http://www.w3.org/2000/svg">
<path opacity="0.3" d="M73.0494 172.394L38.9326 197.651V188.849L73.0494 163.21L106.966 188.849V197.651L73.0494 172.394Z" fill="white"/>
<path opacity="0.7" d="M73.0494 150.735L38.9326 175.991V167.19L73.0494 141.551L106.966 167.19V175.991L73.0494 150.735Z" fill="white"/>
<g filter="url(#filter0_d_16756_49686)">
<rect x="38.7475" y="31.8584" width="68.4044" height="101.107" rx="5.99623" fill="white" stroke="black" stroke-width="2.99811"/>
</g>
<path d="M67.1889 56.7527C69.4736 54.468 69.4736 50.7638 67.1889 48.4791L58.9153 40.2056L50.6417 48.4791C48.3571 50.7638 48.357 54.4681 50.6417 56.7527C52.9196 59.0306 56.6085 59.0374 58.8948 56.7731C58.6442 59.7732 56.1298 62.1298 53.065 62.1298H64.7656C61.7008 62.1298 59.1865 59.7732 58.9359 56.7731C61.2221 59.0374 64.911 59.0305 67.1889 56.7527Z" fill="black"/>
<path d="M47.5211 120.232V113.747L61.1299 101.832C62.1501 100.909 63.0184 100.065 63.735 99.3C64.4516 98.5227 64.9981 97.7454 65.3746 96.9681C65.7511 96.1787 65.9394 95.3225 65.9394 94.3994C65.9394 93.3671 65.7147 92.4866 65.2653 91.7579C64.8159 91.017 64.1965 90.4462 63.4071 90.0454C62.6176 89.6446 61.7128 89.4442 60.6926 89.4442C59.6603 89.4442 58.7555 89.6567 57.9782 90.0818C57.2009 90.4947 56.5936 91.0959 56.1564 91.8854C55.7313 92.6748 55.5188 93.6343 55.5188 94.7638H46.9746C46.9746 92.2254 47.5454 90.0332 48.6871 88.1872C49.8287 86.3411 51.4319 84.9201 53.4966 83.9242C55.5734 82.9161 57.9842 82.4121 60.7291 82.4121C63.5589 82.4121 66.0183 82.8858 68.1073 83.8331C70.1963 84.7804 71.8116 86.1043 72.9532 87.8046C74.107 89.4928 74.6839 91.4542 74.6839 93.6889C74.6839 95.1099 74.3985 96.5188 73.8277 97.9155C73.2569 99.3122 72.2306 100.855 70.7489 102.543C69.2793 104.231 67.1903 106.253 64.4819 108.609L60.0186 112.727V112.963H75.1394V120.232H47.5211Z" fill="black"/>
<path d="M97.4881 82.9222V120.232H88.4885V91.3388H88.2699L79.9261 96.4398V88.6426L89.1261 82.9222H97.4881Z" fill="black"/>
<path d="M102.201 10.1079C115.548 10.1079 126.368 20.9397 126.368 34.3015V197.608H120.326V34.3015C120.326 24.2802 112.212 16.1563 102.201 16.1563H41.7848C31.7747 16.1563 23.6598 24.2802 23.6598 34.3015V197.608H17.6182V34.3015C17.6182 20.9397 28.438 10.1079 41.7848 10.1079H102.201Z" fill="url(#paint0_linear_16756_49686)"/>
<defs>
<filter id="filter0_d_16756_49686" x="31.4087" y="30.3594" width="83.082" height="115.785" filterUnits="userSpaceOnUse" color-interpolation-filters="sRGB">
<feFlood flood-opacity="0" result="BackgroundImageFix"/>
<feColorMatrix in="SourceAlpha" type="matrix" values="0 0 0 0 0 0 0 0 0 0 0 0 0 0 0 0 0 0 127 0" result="hardAlpha"/>
<feOffset dy="5.83984"/>
<feGaussianBlur stdDeviation="2.91992"/>
<feComposite in2="hardAlpha" operator="out"/>
<feColorMatrix type="matrix" values="0 0 0 0 0 0 0 0 0 0 0 0 0 0 0 0 0 0 0.25 0"/>
<feBlend mode="normal" in2="BackgroundImageFix" result="effect1_dropShadow_16756_49686"/>
<feBlend mode="normal" in="SourceGraphic" in2="effect1_dropShadow_16756_49686" result="shape"/>
</filter>
<linearGradient id="paint0_linear_16756_49686" x1="71.9932" y1="10.1079" x2="71.9932" y2="197.608" gradientUnits="userSpaceOnUse">
<stop stop-color="white" stop-opacity="0.7"/>
<stop offset="0.98" stop-color="white" stop-opacity="0"/>
</linearGradient>
</defs>
</svg>
