<svg width="25" height="24" viewBox="0 0 25 24" fill="none" xmlns="http://www.w3.org/2000/svg">
<g clip-path="url(#clip0_6400_4832)">
<g clip-path="url(#clip1_6400_4832)">
<mask id="mask0_6400_4832" style="mask-type:luminance" maskUnits="userSpaceOnUse" x="0" y="0" width="25" height="24">
<path d="M24.5 0H0.5V24H24.5V0Z" fill="white"/>
</mask>
<g mask="url(#mask0_6400_4832)">
<path d="M12.4999 0C5.87279 0 0.5 5.37279 0.5 11.9999C0.5 18.6269 5.87279 23.9998 12.4999 23.9998C19.1269 23.9998 24.4998 18.6269 24.4998 11.9999C24.4998 5.37279 19.1269 0 12.4999 0Z" fill="#90CAF9"/>
<path d="M12.4999 20.2106C6.51889 20.2106 1.5743 15.83 0.663577 10.1055C0.565683 10.7244 0.5 11.3541 0.5 12.0002C0.5 18.6272 5.87279 24.0001 12.4999 24.0001C19.1269 24.0001 24.4998 18.6272 24.4998 12.0002C24.4998 11.3541 24.434 10.7244 24.3363 10.1055C23.4254 15.83 18.4808 20.2106 12.4999 20.2106Z" fill="#64B5F6"/>
<path d="M14.906 0.242188C14.5435 0.329975 14.1418 0.438607 13.6606 0.5725C11.5915 1.14723 11.1115 1.21733 9.33113 2.25816C6.84085 3.71394 5.07812 5.6295 5.07812 5.6295C5.07812 5.6295 5.88276 6.81748 6.61095 7.50654C7.33915 8.19621 8.18167 8.65599 8.18167 8.65599C8.18167 8.65599 10.9783 5.74445 15.3462 4.70993C17.9685 4.08909 20.28 4.1592 21.7143 4.31394C20.0028 2.26512 17.6225 0.794182 14.906 0.242188ZM22.4703 12.1164C22.5423 10.0335 21.4289 8.59662 21.4289 8.59662L17.6577 9.42273C17.6577 9.42273 18.3045 13.3732 18.1245 15.0974C17.9754 16.5291 17.4051 18.2337 16.6605 20.1077C16.6605 20.1077 19.346 19.5146 22.1237 16.2159C22.2663 14.9174 22.4318 13.2431 22.4703 12.1164Z" fill="#FDD835"/>
<path d="M21.895 18.1502C21.895 18.1502 22.0705 16.767 22.229 15.207C20.9078 17.0462 19.0838 18.4937 16.9529 19.3482C16.7167 19.971 16.459 20.6126 16.1843 21.2745C15.775 22.2605 15.1675 23.1282 14.6016 23.8052C14.9041 23.7516 15.2009 23.6846 15.4946 23.6088C15.5363 23.598 15.578 23.588 15.6197 23.5766C15.9064 23.4996 16.1893 23.4131 16.4672 23.3157C16.4981 23.3051 16.5278 23.2931 16.5589 23.2823C18.055 22.7442 19.4129 21.9188 20.5661 20.8691C20.5801 20.8565 20.5939 20.8439 20.6078 20.8311C20.8358 20.6222 21.0562 20.4048 21.2672 20.1782L21.895 18.1502Z" fill="#FBC02D"/>
<path d="M4.58879 13.3238C3.44881 12.3177 2.02651 9.36825 1.29452 7.73438C0.78926 9.06131 0.5 10.495 0.5 11.9994C0.5 13.2796 0.70463 14.5111 1.07599 15.6682C2.7844 17.2143 4.97974 19.0338 5.629 19.5649C6.6692 20.4157 11.0662 21.4092 11.0662 21.4092C11.0662 21.4092 11.0662 21.4092 11.4919 20.038C11.9176 18.6669 11.8228 17.4852 11.8228 17.4852C11.8228 17.4852 6.19615 14.7423 4.58879 13.3238Z" fill="#FDD835"/>
<path d="M0.602315 13.492C0.630104 13.7149 0.663577 13.936 0.703366 14.1558C0.732419 14.3143 0.762103 14.4722 0.797471 14.6282C0.839786 14.817 0.890312 15.0027 0.94147 15.1884C0.985679 15.3482 1.02484 15.5099 1.07536 15.6671C2.78377 17.2131 4.97911 19.0328 5.62837 19.5639C6.66857 20.4146 11.0656 21.408 11.0656 21.408C11.0656 21.408 11.0694 21.396 11.4527 20.1614C5.95046 19.6851 1.52125 15.4916 0.66421 10.1055C0.662945 10.1137 0.661682 10.1225 0.660419 10.1314C0.613683 10.4301 0.573894 10.7307 0.546105 11.0345C0.519579 11.3528 0.5 11.6737 0.5 11.9989C0.5 12.3697 0.522736 12.7353 0.555578 13.0972C0.567578 13.2299 0.585894 13.3606 0.602315 13.492Z" fill="#FBC02D"/>
<path d="M23.8065 7.9653C21.6616 8.00067 17.2684 8.48193 12.5101 11.4099C10.9943 10.592 9.70088 9.67877 8.61205 8.75477C9.52026 7.96721 15.1469 3.41294 22.086 4.78218C21.7917 4.3925 21.4791 4.01861 21.1405 3.66809C14.0101 2.8161 8.58362 7.49795 7.89901 8.11941C7.01543 7.30152 6.27902 6.49374 5.68976 5.75859L5.80091 5.84702C5.83819 5.80028 9.44257 1.38622 16.1599 0.567699C15.3711 0.316965 14.5482 0.143914 13.6981 0.0605469C8.66005 1.34769 5.7965 4.39503 5.18639 5.10618C4.70324 4.45187 4.3483 3.88851 4.09694 3.45651C3.86072 3.68957 3.63778 3.93524 3.42178 4.18724C4.52893 6.0308 7.14112 9.58403 12.0459 12.2347C12.0952 13.9564 11.9512 15.5334 11.6954 16.9374C10.5567 16.5434 3.78431 13.9406 1.50938 7.22889C1.31675 7.67289 1.15255 8.13141 1.0136 8.6013C3.83231 15.224 10.6173 17.5898 11.5021 17.8728C11.2356 19.0475 10.904 20.0897 10.5617 20.9681L10.5826 20.8266C10.5238 20.8178 4.83967 19.9064 0.757812 14.3954C0.923917 15.2145 1.17528 16.0014 1.49865 16.7505C5.16302 20.5766 9.31625 21.5535 10.2478 21.7292C9.90804 22.5098 9.58278 23.1212 9.32952 23.5589C9.6472 23.6466 9.96867 23.7255 10.2964 23.7869C11.3335 21.9369 13.1512 17.8652 12.992 12.2246C14.4585 11.3215 15.8959 10.6577 17.2405 10.1771C17.4699 11.3657 18.6111 18.5877 13.8674 23.9195C14.3594 23.8646 14.8387 23.7729 15.3111 23.6598C19.6968 17.8961 18.3453 10.7878 18.1482 9.87645C19.2976 9.52023 20.365 9.28656 21.2959 9.14382L21.1651 9.19562C21.1873 9.25119 23.2456 14.6429 20.497 20.9454C21.1197 20.3889 21.6831 19.7706 22.1788 19.0968C23.658 14.0132 22.429 9.93077 22.1145 9.03519C22.9305 8.94299 23.6011 8.91771 24.1026 8.91582C24.016 8.5931 23.9176 8.27667 23.8065 7.9653Z" fill="#1976D2"/>
</g>
</g>
</g>
<defs>
<clipPath id="clip0_6400_4832">
<rect width="25" height="24" fill="white"/>
</clipPath>
<clipPath id="clip1_6400_4832">
<rect width="24" height="24" fill="white" transform="translate(0.5)"/>
</clipPath>
</defs>
</svg>
