<svg width="14" height="12" viewBox="0 0 14 12" fill="none" xmlns="http://www.w3.org/2000/svg">
<path fill-rule="evenodd" clip-rule="evenodd" d="M12.4122 3.25222C12.3753 3.25005 12.3361 3.24919 12.2945 3.24962H10.6537C9.30975 3.24962 8.16016 4.30759 8.16016 5.68658C8.16016 7.06558 9.3104 8.12355 10.6537 8.12355H12.2945C12.3361 8.12398 12.3756 8.12311 12.4128 8.12095C12.689 8.10429 12.9498 7.98779 13.1464 7.79315C13.3431 7.59851 13.4623 7.339 13.4818 7.06298C13.4844 7.02399 13.4844 6.98175 13.4844 6.94276V4.43041C13.4844 4.39142 13.4844 4.34918 13.4818 4.31019C13.4623 4.03417 13.3431 3.77466 13.1464 3.58002C12.9498 3.38538 12.6884 3.26887 12.4122 3.25222ZM10.51 6.33644C10.8558 6.33644 11.1359 6.0453 11.1359 5.68658C11.1359 5.32786 10.8558 5.03673 10.51 5.03673C10.1637 5.03673 9.88358 5.32786 9.88358 5.68658C9.88358 6.0453 10.1637 6.33644 10.51 6.33644Z" fill="#F2EEFB"/>
<path fill-rule="evenodd" clip-rule="evenodd" d="M12.294 9.098C12.3165 9.09709 12.3388 9.1015 12.3593 9.11087C12.3797 9.12023 12.3977 9.13428 12.4116 9.15188C12.4256 9.16948 12.4353 9.19014 12.4398 9.21216C12.4443 9.23419 12.4436 9.25697 12.4376 9.27866C12.3076 9.74135 12.1003 10.1365 11.7683 10.4679C11.2815 10.9553 10.6648 11.1704 9.90317 11.2731C9.16233 11.3725 8.21679 11.3725 7.02235 11.3725H5.64986C4.45542 11.3725 3.50923 11.3725 2.76904 11.2731C2.00741 11.1704 1.39069 10.9546 0.903951 10.4685C0.417858 9.9818 0.202106 9.36509 0.0994282 8.60346C7.7469e-08 7.86262 0 6.91708 0 5.72264V5.64986C0 4.45542 7.7469e-08 3.50923 0.0994282 2.76839C0.202106 2.00676 0.417858 1.39004 0.903951 0.903301C1.39069 0.417208 2.00741 0.201456 2.76904 0.0987782C3.50988 -2.90509e-08 4.45542 0 5.64986 0H7.02235C8.21679 0 9.16298 7.7469e-08 9.90317 0.0994282C10.6648 0.202106 11.2815 0.417858 11.7683 0.903951C12.1003 1.23668 12.3076 1.63114 12.4376 2.09384C12.4436 2.11552 12.4443 2.1383 12.4398 2.16033C12.4353 2.18236 12.4256 2.20301 12.4116 2.22061C12.3977 2.23821 12.3797 2.25227 12.3593 2.26163C12.3388 2.27099 12.3165 2.2754 12.294 2.2745H10.6538C8.81011 2.2745 7.18547 3.73018 7.18547 5.68625C7.18547 7.64232 8.81011 9.098 10.6538 9.098H12.294ZM2.43696 2.59943C2.3077 2.59943 2.18373 2.65078 2.09232 2.74218C2.00092 2.83359 1.94957 2.95756 1.94957 3.08682C1.94957 3.21608 2.00092 3.34005 2.09232 3.43146C2.18373 3.52286 2.3077 3.57421 2.43696 3.57421H5.03639C5.16566 3.57421 5.28963 3.52286 5.38103 3.43146C5.47243 3.34005 5.52378 3.21608 5.52378 3.08682C5.52378 2.95756 5.47243 2.83359 5.38103 2.74218C5.28963 2.65078 5.16566 2.59943 5.03639 2.59943H2.43696Z" fill="#F2EEFB"/>
</svg>
