<svg width="15" height="15" viewBox="0 0 15 15" fill="none" xmlns="http://www.w3.org/2000/svg">
<path d="M6.5 8.355V8.82C6.5 8.96 6.42 9.085 6.29 9.14L5.565 9.465C5.52 9.485 5.47 9.495 5.42 9.495H5.35C5.155 9.495 4.995 9.335 4.995 9.14C4.995 9.045 5.03 8.955 5.1 8.89L5.895 8.095C5.92759 8.06175 5.96649 8.03534 6.00942 8.01731C6.05235 7.99928 6.09844 7.98999 6.145 7.99C6.345 8 6.5 8.16 6.5 8.355ZM8.24 8.5H7.765C7.62 8.5 7.5 8.62 7.5 8.765V9.24C7.5 9.385 7.62 9.505 7.765 9.505H8.24C8.385 9.505 8.505 9.385 8.505 9.24V8.765C8.505 8.62 8.385 8.5 8.24 8.5ZM9.25 9.5C9.39 9.5 9.5 9.39 9.5 9.25V8.75C9.5 8.61 9.39 8.5 9.25 8.5C9.11 8.5 9 8.61 9 8.75V9.25C9 9.39 9.115 9.5 9.25 9.5ZM6.9 5.9L6.105 5.105C6.04 5.035 5.95 5 5.855 5C5.66 5 5.5 5.16 5.5 5.355C5.5 5.45 5.54 5.54 5.605 5.605L6.4 6.4C6.465 6.47 6.555 6.505 6.65 6.505C6.845 6.505 7.005 6.345 7.005 6.15C7.005 6.055 6.965 5.965 6.9 5.9ZM3.605 11.605L4.4 12.4C4.465 12.465 4.505 12.555 4.505 12.65C4.505 12.845 4.345 13.005 4.15 13.005C4.055 13.005 3.965 12.97 3.9 12.9L3.105 12.105C3.04 12.04 3 11.95 3 11.855C3 11.66 3.16 11.5 3.355 11.5C3.45 11.5 3.54 11.535 3.605 11.605ZM8 11.485V10.87C8 10.65 7.86 10.455 7.655 10.385L6.585 10.03C6.53 10.015 6.475 10.005 6.42 10.005H5.625C5.545 10.005 5.465 10.025 5.395 10.06L4.79 10.365C4.615 10.45 4.505 10.63 4.505 10.825V11.385C4.505 11.465 4.525 11.545 4.56 11.615L4.865 12.22C4.95 12.395 5.13 12.505 5.325 12.505H5.795C5.93 12.505 6.06 12.45 6.155 12.355L6.36 12.15C6.455 12.055 6.585 12 6.72 12H7.485C7.77 12 8 11.77 8 11.485Z" fill="white"/>
<path fill-rule="evenodd" clip-rule="evenodd" d="M7.5 0C11.642 0 15 3.358 15 7.5C15 11.642 11.642 15 7.5 15C3.358 15 0 11.642 0 7.5C0 3.358 3.358 0 7.5 0ZM9.509 1.3165C8.86009 1.10624 8.18213 0.999432 7.5 1C3.91 1 1 3.91 1 7.5C1 11.09 3.91 14 7.5 14C9.935 14 12.0575 12.661 13.171 10.679C13.0633 10.533 13.0051 10.3564 13.005 10.175V9.295C13.005 9.13 12.875 9 12.71 9C12.595 9 12.505 8.91 12.505 8.795V8.5C12.505 8.225 12.73 8 13.005 8C13.28 8 13.505 7.775 13.505 7.5V7.245C13.505 7.11 13.395 7 13.26 7C13.12 7 13 7.115 13.01 7.255C13.01 7.39 12.9 7.5 12.765 7.5H12.465C12.21 7.5 12.005 7.295 12.005 7.04V6.75C12.005 6.61 11.895 6.5 11.755 6.5C11.615 6.5 11.505 6.61 11.505 6.75V7.225C11.505 7.38 11.38 7.5 11.23 7.5C11.105 7.5 11.005 7.6 11.005 7.725V8.19C11.0051 8.26019 10.9815 8.32836 10.938 8.38345C10.8945 8.43855 10.8337 8.47735 10.7654 8.49355C10.6971 8.50976 10.6254 8.50242 10.5618 8.47274C10.4982 8.44305 10.4464 8.39275 10.415 8.33L9.605 6.705C9.57313 6.64356 9.52508 6.59199 9.46604 6.55587C9.407 6.51974 9.33921 6.50042 9.27 6.5C9.11 6.5 8.97 6.605 8.915 6.755L8.565 7.8C8.54321 7.86511 8.49903 7.92037 8.44032 7.95596C8.38161 7.99155 8.31217 8.00515 8.24437 7.99435C8.17657 7.98355 8.1148 7.94905 8.07005 7.89698C8.02531 7.84491 8.00048 7.77865 8 7.71V6.75C8 6.61 7.89 6.5 7.75 6.5C7.61 6.5 7.5 6.39 7.5 6.25V5.53C7.5 5.24 7.265 5 6.97 5C6.71 5 6.5 4.79 6.505 4.53V4.47C6.505 4.21 6.715 4 6.975 4H7.255C7.395 4 7.505 3.89 7.505 3.75C7.505 3.61 7.395 3.5 7.255 3.5H6.44C6.2 3.5 6.005 3.695 6.005 3.935V4.25C6.005 4.39 5.895 4.5 5.755 4.5C5.615 4.5 5.505 4.39 5.505 4.25V3.96C5.505 3.43 5.075 3 4.545 3H3.755C3.615 3 3.505 2.89 3.505 2.75C3.505 2.61 3.615 2.5 3.755 2.5H5.205C5.37 2.5 5.505 2.365 5.505 2.2C5.505 2.09 5.595 2 5.705 2H7.97C8.315 2 8.655 1.895 8.94 1.7L9.509 1.3165Z" fill="white"/>
</svg>
