<svg width="16" height="16" viewBox="0 0 16 16" fill="none" xmlns="http://www.w3.org/2000/svg">
<rect width="16" height="16" rx="8" fill="black"/>
<path d="M11.6446 6.44374C11.4925 6.35597 11.3179 6.31526 11.1428 6.32674C10.9676 6.33822 10.7998 6.40138 10.6606 6.50823C10.5213 6.61509 10.4169 6.76083 10.3604 6.92704C10.304 7.09326 10.2982 7.27246 10.3436 7.44201C10.389 7.61156 10.4837 7.76382 10.6157 7.87955C10.7476 7.99529 10.911 8.06929 11.085 8.0922C11.259 8.11511 11.4359 8.0859 11.5933 8.00827C11.7508 7.93063 11.8816 7.80806 11.9694 7.65605C12.0868 7.45215 12.1186 7.21 12.0577 6.98272C11.9968 6.75544 11.8482 6.5616 11.6446 6.44374Z" fill="white"/>
<path d="M11.0865 7.62171L11.097 7.72472L10.9941 7.81305C10.924 7.78743 10.8593 7.75018 10.8021 7.70221L10.8272 7.56896L10.9225 7.52699L11.0865 7.62171ZM11.7181 7.60406C11.6731 7.66213 11.6193 7.71207 11.5574 7.75148L11.4534 7.69142L11.4426 7.58708L11.5705 7.47488L11.6737 7.49726L11.7181 7.60406ZM10.8068 7.03396L10.7736 7.20085L10.6787 7.24416L10.5747 7.1841C10.5778 7.11071 10.5933 7.03873 10.6211 6.97075L10.7358 6.95576L10.8068 7.03396ZM11.3053 6.69593L11.256 6.78135L11.0731 6.79531L11.0013 6.71662L11.0293 6.59974C11.0999 6.57866 11.1734 6.57047 11.247 6.5743L11.3053 6.69593ZM11.7485 6.86385C11.7887 6.92565 11.8182 6.99335 11.8353 7.06507L11.7486 7.14693L11.6432 7.12441L11.5655 6.96006L11.6148 6.87464L11.7485 6.86385Z" stroke="black" stroke-width="0.220763"/>
<path d="M3.0701 9.21585C2.87043 9.21585 2.70798 9.1741 2.58273 9.09061C2.4593 9.00529 2.38034 8.89003 2.34585 8.74482L2.74337 8.54061C2.79057 8.71124 2.91218 8.79655 3.10822 8.79655C3.27521 8.79655 3.36869 8.743 3.38866 8.63591C3.39955 8.58145 3.38049 8.5388 3.33148 8.50794C3.28429 8.47527 3.19988 8.43806 3.07827 8.39631C2.89857 8.33641 2.76425 8.26017 2.6753 8.1676C2.58818 8.07321 2.55913 7.94161 2.58818 7.7728C2.61722 7.59492 2.6989 7.46059 2.83322 7.36984C2.96754 7.27908 3.12274 7.2337 3.29881 7.2337C3.45491 7.2337 3.59014 7.27091 3.7045 7.34533C3.82067 7.41975 3.90326 7.52594 3.95227 7.66389L3.57108 7.86537C3.50392 7.72379 3.40046 7.653 3.26069 7.653C3.19535 7.653 3.14271 7.66662 3.10277 7.69384C3.06465 7.72107 3.04106 7.75556 3.03198 7.79731C3.02109 7.84995 3.03833 7.89351 3.08371 7.928C3.13091 7.96067 3.21168 7.99788 3.32604 8.03963C3.36053 8.05234 3.38866 8.06323 3.41044 8.0723C3.43404 8.07956 3.46217 8.09045 3.49485 8.10498C3.52752 8.11768 3.55384 8.13039 3.57381 8.14309C3.59559 8.15399 3.62009 8.16851 3.64732 8.18666C3.67636 8.20299 3.69905 8.22024 3.71539 8.23839C3.73354 8.25654 3.75169 8.27742 3.76984 8.30101C3.78981 8.32279 3.80433 8.3473 3.81341 8.37453C3.8243 8.39994 3.83337 8.42807 3.84063 8.45893C3.8479 8.48797 3.85062 8.52065 3.8488 8.55695C3.8488 8.59325 3.84517 8.63228 3.83791 8.67403C3.80705 8.84828 3.72265 8.9826 3.5847 9.07699C3.44856 9.16957 3.27703 9.21585 3.0701 9.21585ZM4.99491 7.77825C5.18913 7.77825 5.33616 7.85358 5.43599 8.00423C5.53582 8.15308 5.57031 8.32643 5.53945 8.52428C5.51223 8.70942 5.43145 8.87097 5.29713 9.00892C5.16462 9.14688 4.99763 9.21585 4.79615 9.21585C4.61463 9.21585 4.48122 9.15141 4.3959 9.02254L4.27338 9.72228H3.86497L4.19987 7.81637H4.60828L4.58922 7.93072C4.69994 7.82907 4.83517 7.77825 4.99491 7.77825ZM5.00035 8.73937C5.06933 8.67947 5.11289 8.5987 5.13104 8.49705C5.14919 8.3954 5.13376 8.31463 5.08476 8.25473C5.03756 8.19483 4.96677 8.16488 4.87238 8.16488C4.77981 8.16488 4.69813 8.19392 4.62734 8.252C4.55654 8.31009 4.51117 8.38723 4.4912 8.48344L4.48575 8.50794C4.47305 8.60596 4.4912 8.68401 4.54021 8.7421C4.58922 8.80018 4.66092 8.82922 4.7553 8.82922C4.84969 8.82922 4.93137 8.79927 5.00035 8.73937ZM6.34551 9.21585C6.18578 9.21585 6.05236 9.17683 5.94527 9.09877C5.83999 9.01891 5.7692 8.9218 5.7329 8.80744C5.69841 8.69127 5.69387 8.56966 5.71928 8.4426C5.7574 8.25563 5.84907 8.09862 5.99428 7.97156C6.13949 7.84269 6.3201 7.77825 6.5361 7.77825C6.75392 7.77825 6.91819 7.85721 7.02892 8.01513C7.13964 8.17123 7.17776 8.34639 7.14327 8.54061C7.1106 8.72394 7.01893 8.88277 6.86828 9.01709C6.71762 9.1496 6.54336 9.21585 6.34551 9.21585ZM6.17126 8.73121C6.21663 8.78929 6.2838 8.81833 6.37274 8.81833C6.46168 8.81833 6.54064 8.78929 6.60962 8.73121C6.67859 8.67131 6.72125 8.59325 6.73759 8.49705C6.75574 8.40085 6.74031 8.3237 6.6913 8.26562C6.6441 8.20572 6.57604 8.17577 6.48709 8.17577C6.39815 8.17577 6.3201 8.20572 6.25294 8.26562C6.18759 8.3237 6.14584 8.40085 6.12769 8.49705C6.11136 8.59325 6.12588 8.67131 6.17126 8.73121ZM7.8671 8.06141C7.90703 7.97247 7.96784 7.90531 8.04952 7.85993C8.1312 7.81274 8.22287 7.78914 8.32452 7.78914L8.24556 8.252C8.18566 8.24293 8.12485 8.24474 8.06313 8.25745C8.00323 8.27016 7.94424 8.30283 7.88616 8.35547C7.82989 8.40629 7.79449 8.47527 7.77997 8.5624L7.78269 8.54606L7.67106 9.17773H7.26265L7.50225 7.81637H7.91066L7.8671 8.06141ZM9.00178 8.20844L8.91737 8.69036C8.90648 8.74663 8.92191 8.78203 8.96366 8.79655C9.00541 8.81107 9.07711 8.8147 9.17875 8.80744L9.11341 9.17773C8.87018 9.20496 8.69955 9.17864 8.60153 9.09877C8.50533 9.01891 8.47447 8.88277 8.50896 8.69036L8.59337 8.20844H8.37555L8.44634 7.81637H8.66143L8.70772 7.55771L9.13791 7.43518L9.06984 7.81637H9.35301L9.28222 8.20844H9.00178ZM9.86222 9.21585C9.58087 9.21585 9.38938 9.10422 9.28773 8.88096L9.6553 8.69581C9.69523 8.79927 9.776 8.85101 9.89762 8.85101C9.99019 8.85101 10.0401 8.82741 10.0474 8.78021C10.0528 8.75117 10.0328 8.72667 9.98747 8.7067C9.94209 8.68673 9.88673 8.66767 9.82138 8.64952C9.75604 8.63137 9.6916 8.60777 9.62807 8.57873C9.56635 8.54969 9.51734 8.5025 9.48104 8.43715C9.44474 8.36999 9.43566 8.2874 9.45381 8.18938C9.47015 8.09681 9.50918 8.01876 9.57089 7.95523C9.63261 7.89169 9.70249 7.84632 9.78054 7.81909C9.85859 7.79186 9.94028 7.77825 10.0256 7.77825C10.1454 7.77825 10.2507 7.80457 10.3414 7.85721C10.434 7.90803 10.5021 7.97882 10.5456 8.06958L10.1781 8.252C10.1454 8.17214 10.0864 8.1322 10.0011 8.1322C9.9194 8.1322 9.87312 8.16034 9.86222 8.21661C9.85496 8.25291 9.87312 8.28105 9.91668 8.30101C9.96206 8.32098 10.0174 8.33913 10.0828 8.35547C10.1481 8.36999 10.2126 8.39086 10.2761 8.41809C10.3396 8.4435 10.3895 8.48979 10.4258 8.55695C10.4621 8.6223 10.4712 8.7067 10.4531 8.81016C10.4276 8.94812 10.3614 9.05067 10.2543 9.11783C10.1472 9.18318 10.0165 9.21585 9.86222 9.21585Z" fill="white"/>
<path d="M11.3458 7.88995C11.515 7.88995 11.6506 7.95496 11.7524 8.08496C11.8554 8.21496 11.891 8.37072 11.8591 8.55224C11.8272 8.73498 11.7426 8.88522 11.6052 9.00296C11.4678 9.11948 11.3059 9.17773 11.1195 9.17773H10.6044L10.8307 7.88995H11.3458ZM11.5758 8.52465C11.5954 8.41549 11.5794 8.32964 11.5279 8.26709C11.4764 8.20454 11.3991 8.17326 11.2961 8.17326H11.0754L10.9484 8.89442H11.1508C11.2599 8.89442 11.3532 8.86069 11.4304 8.79324C11.5077 8.72578 11.5561 8.63625 11.5758 8.52465ZM12.891 8.17326H12.3851L12.3464 8.38851H12.8082L12.7585 8.66446H12.2986L12.2581 8.89442H12.7732L12.7236 9.17773H11.9141L12.1404 7.88995H12.9406L12.891 8.17326ZM14.1277 7.88995L13.5869 8.61479L13.4875 9.17773H13.1932L13.2925 8.61295L13.0055 7.88995H13.3238L13.4747 8.32412L13.7764 7.88995H14.1277Z" fill="#05ED1B"/>
<path d="M10.0593 7.71477C10.0748 7.72693 10.0851 7.74469 10.0873 7.76428C10.0882 7.77226 10.0934 7.78572 10.1152 7.80398C10.1369 7.82213 10.1681 7.83983 10.2057 7.85603C10.243 7.87205 10.2835 7.88477 10.3198 7.89643L10.4121 7.92806L10.4225 7.93289L10.3826 7.99605L10.4224 7.93386C10.4356 7.94239 10.4555 7.96191 10.4573 7.99378C10.4588 8.02126 10.4454 8.04038 10.4399 8.04715C10.4288 8.06073 10.4147 8.06885 10.4093 8.07192C10.3944 8.08037 10.3734 8.08871 10.3512 8.09721C10.3053 8.11481 10.2369 8.13754 10.1543 8.16326C9.98821 8.21489 9.75711 8.28188 9.50942 8.35079C9.0134 8.4888 8.44856 8.63762 8.20333 8.70089L8.20244 8.69983C7.71084 8.85768 6.33964 9.15298 6.11799 9.20614L6.11711 9.20508C6.09977 9.21134 6.07829 9.21943 6.05457 9.22509C6.02242 9.23275 5.98134 9.24144 5.93273 9.25067C5.83511 9.2692 5.7039 9.29011 5.54886 9.31307C5.23873 9.35898 4.82823 9.41096 4.37976 9.45363C3.48461 9.5388 2.43003 9.58922 1.72302 9.4882L1.71913 9.48786C1.40499 9.42516 1.21208 9.36249 1.09968 9.28549C1.04126 9.24544 1.00116 9.19899 0.978721 9.1445C0.956725 9.09095 0.954864 9.03651 0.959384 8.98498C0.967323 8.89447 1.03211 8.81339 1.11079 8.74534C1.19241 8.67473 1.30336 8.60546 1.42958 8.54195C1.6824 8.41481 2.00925 8.30305 2.32107 8.23587C2.35921 8.2278 2.39737 8.25091 2.40762 8.28855C2.41766 8.32611 2.39649 8.36514 2.35962 8.37747C2.18289 8.43592 1.98988 8.50991 1.82424 8.59127C1.65572 8.67405 1.52518 8.75929 1.46261 8.836C1.43193 8.87365 1.42567 8.90041 1.42706 8.91719C1.4283 8.93202 1.43747 8.95653 1.48157 8.98863C1.57444 9.05609 1.77946 9.12365 2.15632 9.17526C3.84537 9.24958 5.80034 8.8346 5.93577 8.81372L6.72386 8.63581C7.13898 8.53596 7.6445 8.40675 8.05285 8.28184C8.45868 8.15769 8.85675 8.02503 9.19949 7.91677C9.53898 7.80954 9.82753 7.72512 10.0037 7.70009L10.033 7.70168C10.0423 7.70418 10.0515 7.70874 10.0593 7.71477Z" fill="white" stroke="black" stroke-width="0.147175" stroke-linejoin="round"/>
</svg>
