<svg width="18" height="20" viewBox="0 0 18 20" fill="none" xmlns="http://www.w3.org/2000/svg">
<path d="M13.75 9.75C12.8181 9.75 12.3522 9.75 11.9846 9.5978C11.4946 9.3948 11.1052 9.0054 10.9022 8.5154C10.75 8.1478 10.75 7.68188 10.75 6.75C10.75 5.81812 10.75 5.35218 10.9022 4.98463C11.1052 4.49458 11.4946 4.10523 11.9846 3.90224C12.3522 3.75 12.8181 3.75 13.75 3.75C14.6819 3.75 15.1478 3.75 15.5154 3.90224C16.0054 4.10523 16.3948 4.49458 16.5978 4.98463C16.75 5.35218 16.75 5.81812 16.75 6.75C16.75 7.68188 16.75 8.1478 16.5978 8.5154C16.3948 9.0054 16.0054 9.3948 15.5154 9.5978C15.1478 9.75 14.6819 9.75 13.75 9.75Z" stroke="#053209" stroke-width="1.5"/>
<path d="M3.75 15.75C2.81812 15.75 2.35218 15.75 1.98463 15.5978C1.49458 15.3948 1.10523 15.0054 0.90224 14.5154C0.75 14.1478 0.75 13.6819 0.75 12.75C0.75 11.8181 0.75 11.3522 0.90224 10.9846C1.10523 10.4946 1.49458 10.1052 1.98463 9.9022C2.35218 9.75 2.81812 9.75 3.75 9.75C4.68188 9.75 5.14782 9.75 5.51537 9.9022C6.00542 10.1052 6.39477 10.4946 6.59776 10.9846C6.75 11.3522 6.75 11.8181 6.75 12.75C6.75 13.6819 6.75 14.1478 6.59776 14.5154C6.39477 15.0054 6.00542 15.3948 5.51537 15.5978C5.14782 15.75 4.68188 15.75 3.75 15.75Z" stroke="#053209" stroke-width="1.5"/>
<path d="M3.75 6.75V0.75" stroke="#053209" stroke-width="1.5" stroke-linecap="round" stroke-linejoin="round"/>
<path d="M13.75 3.75V0.75" stroke="#053209" stroke-width="1.5" stroke-linecap="round" stroke-linejoin="round"/>
<path d="M13.75 18.75V12.75" stroke="#053209" stroke-width="1.5" stroke-linecap="round" stroke-linejoin="round"/>
<path d="M3.75 18.75V15.75" stroke="#053209" stroke-width="1.5" stroke-linecap="round" stroke-linejoin="round"/>
</svg>
